<?xml version="1.0" encoding="UTF-8"?>
<svg width="9.5045in" height="7.6083in" version="1.2" viewBox="-702 0 912.43 730.4" xmlns="http://www.w3.org/2000/svg" xmlns:cc="http://creativecommons.org/ns#" xmlns:dc="http://purl.org/dc/elements/1.1/" xmlns:rdf="http://www.w3.org/1999/02/22-rdf-syntax-ns#">
 <metadata>
  <rdf:RDF>
   <cc:Work rdf:about="">
    <dc:format>image/svg+xml</dc:format>
    <dc:type rdf:resource="http://purl.org/dc/dcmitype/StillImage"/>
    <dc:title/>
   </cc:Work>
  </rdf:RDF>
 </metadata>\n
 <g transform="translate(-58.77 -3797.8)">
  <path d="m-606.47 3841.2-0.132-0.75 0.229-0.04-0.207 0.09 0.486 2.13 1.62 4.62 0.886 4.5 2.005 5.19 1.152 4.36 1.522 3.02 1.163 0.74 1.967-2.25 3.332-10.2 1.858-3.67 2.368-6.19 1.412-2.54 0.209 1.16" fill="none" stroke="#000" stroke-linecap="round" stroke-linejoin="round" stroke-width="4"/>
 </g>
 <g transform="translate(-58.77 -3797.8)">
  <path d="m-579.51 3862.2-0.413-1.47 0.108-4.43" fill="none" stroke="#000" stroke-linecap="round" stroke-linejoin="round" stroke-width="4"/>
 </g>
 <g transform="translate(-58.77 -3797.8)">
  <path d="m-576.95 3848.4-0.264-0.99 0.087 1.05" fill="none" stroke="#000" stroke-linecap="round" stroke-linejoin="round" stroke-width="4"/>
 </g>
 <g transform="translate(-58.77 -3797.8)">
  <path d="m-558.79 3860.4 0.963-0.08-0.59-0.77-1.052-4.24-0.917-10.33-0.733-3.02-0.085-3.19 0.317 0.72-0.253 3.11" fill="none" stroke="#000" stroke-linecap="round" stroke-linejoin="round" stroke-width="4"/>
 </g>
 <g transform="translate(-58.77 -3797.8)">
  <path d="m-569.87 3863.3 1.99-0.05 1.652 1.24 2.976-0.92 3.526-2.67 1.053-1.92 0.111-1.43-1.459-2.55-1.577-1.41-2.213-0.92-1.021 0.03-2.81 0.83-1.752 1.19-1.196 2.47-0.331 2.52" fill="none" stroke="#000" stroke-linecap="round" stroke-linejoin="round" stroke-width="4"/>
 </g>
 <g transform="translate(-58.77 -3797.8)">
  <path d="m-546.86 3855.9 0.863-0.53 1.183 0.11 1.047-0.56 0.304-0.73 0.912-0.75 0.194-0.93 0.539-0.6-0.244-0.69-0.215-0.2-0.14 0.38-0.068-0.52-0.972 0.04-0.869-0.35-1.259 0.13-1.395 0.39-2.281 1.5-1.681 1.87-0.623 2.19 0.058 0.93 0.617 2.46 0.573 0.97 1.572 1.72 1.41 0.88 2.966 0.52 2.533-0.47 0.918-0.51" fill="none" stroke="#000" stroke-linecap="round" stroke-linejoin="round" stroke-width="4"/>
 </g>
 <g transform="translate(-58.77 -3797.8)">
  <path d="m-531.62 3860.9 3.263 0.84 1.522-0.77 2.008-1.59 1.417-1.88 0.933-2.95-0.68-1.79-2.077-1.09-2.157-0.03-2.304 0.79-1.232 0.79-0.99 1.54-0.475 1.98 0.298 2.12" fill="none" stroke="#000" stroke-linecap="round" stroke-linejoin="round" stroke-width="4"/>
 </g>
 <g transform="translate(-58.77 -3797.8)">
  <path d="m-501.57 3865-1.633-0.26-2.981 0.61-6.558 2.32-0.431-0.1-0.394 0.47" fill="none" stroke="#000" stroke-linecap="round" stroke-linejoin="round" stroke-width="4"/>
 </g>
 <g transform="translate(-58.77 -3797.8)">
  <path d="m-478.54 3839.1-0.381-1.51-5.239 0.24-3.412 1.59-1.285 1.62-1.297 2.96-0.351 1.62 0.108 5.87 0.802 2.32 1.436 1.89 1.076 0.68 1.181 0.51 2.022 0.26 7.444-1.23 2.596-0.85 1.756-1" fill="none" stroke="#000" stroke-linecap="round" stroke-linejoin="round" stroke-width="4"/>
 </g>
 <g transform="translate(-58.77 -3797.8)">
  <path d="m-464.16 3842.4 0.469 0.01-0.511 0.81-0.37 5.1 0.213 9.95 0.435 1.53" fill="none" stroke="#000" stroke-linecap="round" stroke-linejoin="round" stroke-width="4"/>
 </g>
 <g transform="translate(-58.77 -3797.8)">
  <path d="m-460.23 3848.7-0.168 0.97-0.122-0.59-1.01 0.11-3.81-1.03-2.36 0.06-1.646 0.85-0.265 0.43" fill="none" stroke="#000" stroke-linecap="round" stroke-linejoin="round" stroke-width="4"/>
 </g>
 <g transform="translate(-58.77 -3797.8)">
  <path d="m-454.04 3845 0.358 0.59 0.929 0.48 0.418 1.06-0.068 10.8 0.362 1.29 0.611-0.19" fill="none" stroke="#000" stroke-linecap="round" stroke-linejoin="round" stroke-width="4"/>
 </g>
 <g transform="translate(-58.77 -3797.8)">
  <path d="m-442.51 3847.7 0.249-0.03-0.208-0.81-1e-3 0.24-0.582-0.3-0.734 0.4-0.865-0.22-2.516 0.68-1.593 0.78-0.78-0.06-2.11 1.27" fill="none" stroke="#000" stroke-linecap="round" stroke-linejoin="round" stroke-width="4"/>
 </g>
 <g transform="translate(-58.77 -3797.8)">
  <path d="m-434.3 3861-0.835-0.21-0.251-0.82-1.683-11.45-1.626-17.19-0.178-4.87 0.089-0.57 0.504 1.68" fill="none" stroke="#000" stroke-linecap="round" stroke-linejoin="round" stroke-width="4"/>
 </g>
 <g transform="translate(-58.77 -3797.8)">
  <path d="m-404.17 3842.6 1.074-0.1h-0.515l-0.319-0.43-0.122 0.23-0.095-1.41 0.344-1.23 1.588-2.15 1.158-0.12 2.26 0.63 1.78 0.78 1.154 1.12-0.219 2.11-1.306 3.74-3.266 6.69-1.914 4.96-0.26 2.84 0.276-0.33 1.139-0.19 0.487-0.54 1.238 0.22 0.607-0.38 0.716 0.14 1.836-0.64 4.216-0.76 0.871 0.23" fill="none" stroke="#000" stroke-linecap="round" stroke-linejoin="round" stroke-width="4"/>
 </g>
 <g transform="translate(-58.77 -3797.8)">
  <path d="m-384.08 3853.4 1.384 0.92-0.825-0.27-0.25 0.18" fill="none" stroke="#000" stroke-linecap="round" stroke-linejoin="round" stroke-width="4"/>
 </g>
 <g transform="translate(-58.77 -3797.8)">
  <path d="m-367.56 3856.8 0.421-0.17 0.713 0.5 1.274-0.36 0.435 0.16 2.191-1.77 1.852-2.9 2.397-2.91 0.659-1.42 0.232-2.18-0.481-2.63-1.209-1.94-2.976-1.79-2.891-0.82-2.316-0.11-3.477 1.2-1.087 0.87-1.638 1.84-1.518 3.07-0.812 4.72 0.056 2.84 0.587 2.57 0.704 1.29" fill="none" stroke="#000" stroke-linecap="round" stroke-linejoin="round" stroke-width="4"/>
 </g>
 <g transform="translate(-58.77 -3797.8)">
  <path d="m-614.2 4045.9 0.024 151.04" fill="none" stroke="#000" stroke-linecap="round" stroke-linejoin="round" stroke-width="4"/>
 </g>
 <g transform="translate(-58.77 -3797.8)">
  <path d="m-591.18 4214 0.024 150" fill="none" stroke="#000" stroke-linecap="round" stroke-linejoin="round" stroke-width="4"/>
 </g>
 <g transform="translate(-58.77 -3797.8)">
  <path d="m-600.87 4358.9 1.192 0.67 0.241-0.07-0.456-0.16 0.512-0.3-0.522 0.49 0.251 0.35 1.535 0.73 5.761 4.74 0.248 0.4" fill="none" stroke="#000" stroke-linecap="round" stroke-linejoin="round" stroke-width="4"/>
 </g>
 <g transform="translate(-58.77 -3797.8)">
  <path d="m-583.88 4361.7 0.49-1.11 0.814-0.2-0.31-0.03 0.114 0.39-1.938 0.88-1.484 1.21 0.085 0.35-1.039 0.27-5.197 3.76" fill="none" stroke="#000" stroke-linecap="round" stroke-linejoin="round" stroke-width="4"/>
 </g>
 <g transform="translate(-58.77 -3797.8)">
  <path d="m-614.48 4322.6 2.975 1.12 3.796 2.43 5.085 1.92 4.293 1.31 0.544-0.1 1.457 0.53-0.17 0.21 0.3 0.14h-0.732l-1.263-0.65" fill="none" stroke="#000" stroke-linecap="round" stroke-linejoin="round" stroke-width="4"/>
 </g>
 <g transform="translate(-58.77 -3797.8)">
  <path d="m-612.46 4322.5 9.635-3.7 1.536-0.83 0.186-0.5-0.419-0.04" fill="none" stroke="#000" stroke-linecap="round" stroke-linejoin="round" stroke-width="4"/>
 </g>
 <g transform="translate(-58.77 -3797.8)">
  <path d="m-607.68 4318.7 1.759 4.12 0.535 2.55-0.066 1.84" fill="none" stroke="#000" stroke-linecap="round" stroke-linejoin="round" stroke-width="4"/>
 </g>
 <g transform="translate(-58.77 -3797.8)">
  <path d="m-604.37 4306.7 0.481-0.04-0.454-0.18-0.904 0.24 0.32 0.08h-3.236l-2.665 0.57-2.427-0.23 0.255-0.04-0.368-0.07 0.163-0.35-0.453-0.3 0.197-0.07-0.85-2.07 0.918-3.03 1.462-1.26 0.279-0.61 1.577-1.09 2.84-0.1 2.442 0.85 1.802 1.5 0.762 1.06 0.919 4.56-0.261 1.49-0.45 0.54 0.259 0.18-0.478 0.12" fill="none" stroke="#000" stroke-linecap="round" stroke-linejoin="round" stroke-width="4"/>
 </g>
 <g transform="translate(-58.77 -3797.8)">
  <path d="m-605.76 4287.9-0.203-0.44 0.554-0.62-0.206-0.16-0.565 0.66-2.677-0.1-2.881 1.01-3.439 0.23-0.636-1.35 0.384-0.16-0.58-0.76 0.286-0.32-0.084-1.3 0.459-1.21 0.99-1.46 1.618-1.4 4.621-1.92 2.902 0.03 1.931 2.59 1.053 2.85 0.27 2.75-0.261 1.66-0.594 0.66" fill="none" stroke="#000" stroke-linecap="round" stroke-linejoin="round" stroke-width="4"/>
 </g>
 <g transform="translate(-58.77 -3797.8)">
  <path d="m-605.32 4269.6-0.017-0.73 0.325 0.29-0.969 0.25 0.363 0.07-3.518 0.28-6.008-0.16-0.228-0.47-0.742-0.31-0.427-2.45 0.383-2.02 0.491-0.64-0.36-0.28 1.089-0.29 5.202 2.6 0.172-0.13-0.316-0.09 0.499-0.22-0.153-0.2 0.45-0.13 4.256-4.5 0.579-1.39-0.236 0.03 0.317 0.46h-0.452l0.401 0.46" fill="none" stroke="#000" stroke-linecap="round" stroke-linejoin="round" stroke-width="4"/>
 </g>
 <g transform="translate(-58.77 -3797.8)">
  <path d="m-599.22 3910.5 0.018 116.54" fill="none" stroke="#000" stroke-linecap="round" stroke-linejoin="round" stroke-width="4"/>
 </g>
 <g transform="translate(-58.77 -3797.8)">
  <path d="m-606.61 4024.4-0.43-0.78 0.43 0.49 0.615 0.06-0.402 0.12 0.169 0.37 2.097 2.14 3.788 5.14-4e-3 0.37 0.471 0.07-0.454-0.4" fill="none" stroke="#000" stroke-linecap="round" stroke-linejoin="round" stroke-width="4"/>
 </g>
 <g transform="translate(-58.77 -3797.8)">
  <path d="m-593.13 4023.6 0.749-0.27 0.035-0.46-0.721 0.3 0.224-0.04-0.128 0.65-0.554 0.37 0.1 0.42-0.784 1.85-1.585 2.74-2.023 2.6" fill="none" stroke="#000" stroke-linecap="round" stroke-linejoin="round" stroke-width="4"/>
 </g>
 <g transform="translate(-58.77 -3797.8)">
  <path d="m-619.74 4003.6-0.306-0.71 0.187 0.32 2.154-0.44 12.682 1.28 0.971-0.17-1.293-0.33" fill="none" stroke="#000" stroke-linecap="round" stroke-linejoin="round" stroke-width="4"/>
 </g>
 <g transform="translate(-58.77 -3797.8)">
  <path d="m-619.02 4001.1-0.376-0.44 0.354-0.1-0.86 0.08-0.192-0.49 1.242-2.95 0.266-2.09 0.365-0.61-0.203-0.15 0.765 0.23 0.174 0.2-0.283 0.05 2.439 1.65 2.069 2.73 0.876 0.31 2.275-1.64 0.927-1.45 1.196-2.47-0.356-2.12" fill="none" stroke="#000" stroke-linecap="round" stroke-linejoin="round" stroke-width="4"/>
 </g>
 <g transform="translate(-58.77 -3797.8)">
  <path d="m-613.94 3985.2 1.406-0.83 0.71-0.86 0.75-1.49-0.108-1.52-1.879-3.46-2.868-2.5-1.386-0.47-0.858 0.06-1.238 1.15-0.972 1.62-0.889 3.04 0.092 1.72 0.662 2.09 2.307 1.4" fill="none" stroke="#000" stroke-linecap="round" stroke-linejoin="round" stroke-width="4"/>
 </g>
 <g transform="translate(-58.77 -3797.8)">
  <path d="m-555.22 3909.7 0.018 114.28" fill="none" stroke="#000" stroke-linecap="round" stroke-linejoin="round" stroke-width="4"/>
 </g>
 <g transform="translate(-58.77 -3797.8)">
  <path d="m-562.06 4020.2-0.076 1.46 0.565-0.07 2.001 3.66-0.059 0.44 4.034 6.32-0.011 0.78 0.29 0.24-0.427 0.08 0.414-0.21-0.427-0.06 0.476 0.07-0.484-0.09 1.114-0.25 1.092-1.2 2.546-1.63 0.432-0.85 3.722-3.4 0.23-0.53 0.31-0.27-0.066 0.45" fill="none" stroke="#000" stroke-linecap="round" stroke-linejoin="round" stroke-width="4"/>
 </g>
 <g transform="translate(-58.77 -3797.8)">
  <path d="m-573.22 4004.2 1.567-0.25 10.045 1.52 0.581-0.16 0.243-0.44-0.557-0.47 0.26-0.24" fill="none" stroke="#000" stroke-linecap="round" stroke-linejoin="round" stroke-width="4"/>
 </g>
 <g transform="translate(-58.77 -3797.8)">
  <path d="m-575.67 3995.9 0.688-0.21 0.133-0.36 1.824-0.23 13.326-0.72 0.969-0.25-0.807-0.27" fill="none" stroke="#000" stroke-linecap="round" stroke-linejoin="round" stroke-width="4"/>
 </g>
 <g transform="translate(-58.77 -3797.8)">
  <path d="m-566 3993.5-0.794 0.21-0.668 1.69 0.395 3.15-0.063 4.07 0.483 0.37-0.062 0.53" fill="none" stroke="#000" stroke-linecap="round" stroke-linejoin="round" stroke-width="4"/>
 </g>
 <g transform="translate(-58.77 -3797.8)">
  <path d="m-573.85 3976.8 0.298-0.25-0.445 0.19 0.381 1.96-0.187 0.53 0.447 1.43 0.351 5.54 0.408 0.64 0.474-0.58 1.572-0.66-0.3-0.23 0.189-0.24 2.819-1.36 3.602-3.7 0.277 0.19 0.064 0.61 0.935 1.27 0.641 2.79-0.248 1.09 0.575 2.7 0.065 3.23" fill="none" stroke="#000" stroke-linecap="round" stroke-linejoin="round" stroke-width="4"/>
 </g>
 <g transform="translate(-58.77 -3797.8)">
  <path d="m-522.86 4027.4-0.039-0.39-0.367 0.08 1.345 0.43 1.038 1.35 1.76 1.39-0.318 0.34 0.845 0.44-0.196 0.2 2.053 1.83-0.238 0.12 1.412 0.66 0.497 0.53-0.238 0.16 0.813 0.54 4.133-2.21 2.223-2.53 1.233-0.56 0.754-0.97 3.927-2.39-1.356 0.07" fill="none" stroke="#000" stroke-linecap="round" stroke-linejoin="round" stroke-width="4"/>
 </g>
 <g transform="translate(-58.77 -3797.8)">
  <path d="m-515.2 4031-0.019-122" fill="none" stroke="#000" stroke-linecap="round" stroke-linejoin="round" stroke-width="4"/>
 </g>
 <g transform="translate(-58.77 -3797.8)">
  <path d="m-535.22 4012.7 0.867 0.07 2e-3 -0.46 2.625-1.01 4.8-1.21 0.668-0.53 0.137-0.59-1.696-1.55-5.533-2.01-0.109-0.46" fill="none" stroke="#000" stroke-linecap="round" stroke-linejoin="round" stroke-width="4"/>
 </g>
 <g transform="translate(-58.77 -3797.8)">
  <path d="m-535.72 3993.2-0.438-0.11 0.634 0.25-0.561 0.08 0.635 0.12 0.461 2.2-0.202 0.56 0.477 0.59-0.209 0.17 0.796 0.32 2.153-0.63 3.654-3.81 1.866-1.25 0.864 1.36 0.396 2.09-0.251 5.7" fill="none" stroke="#000" stroke-linecap="round" stroke-linejoin="round" stroke-width="4"/>
 </g>
 <g transform="translate(-58.77 -3797.8)">
  <path d="m-446.2 4037-167 0.03" fill="none" stroke="#000" stroke-linecap="round" stroke-linejoin="round" stroke-width="4"/>
 </g>
 <g transform="translate(-58.77 -3797.8)">
  <path d="m-615.18 4207 171-0.03" fill="none" stroke="#000" stroke-linecap="round" stroke-linejoin="round" stroke-width="4"/>
 </g>
 <g transform="translate(-58.77 -3797.8)">
  <path d="m-446.2 4038 0.026 169" fill="none" stroke="#000" stroke-linecap="round" stroke-linejoin="round" stroke-width="4"/>
 </g>
 <g transform="translate(-58.77 -3797.8)">
  <path d="m-613.96 4199.2-0.491 0.06 0.258 0.02-0.284 0.27-0.68-0.04 0.329 0.37-0.28 0.18 0.318-0.02 0.138 0.28-0.239 0.11 1.306 1.63 0.203 1.05-0.528-0.01 0.307 0.23-0.382 0.43 0.401 0.98 0.885 0.7-0.248-0.02 0.313 0.31-0.533 0.18 0.703 0.37-0.043 0.39-0.289-0.17 0.419 0.08-0.396-0.22-0.025 0.2 0.35-0.11-0.241-0.17-0.207 0.15 0.302-0.23-0.246 0.23 0.292-0.09-0.757-0.13 0.412 0.04-0.331 0.03 0.123 0.19 0.285-0.18-0.511 0.14 0.419 0.06-0.392-0.2 0.715 0.18-0.361-0.15 0.409-0.05-0.28 0.27 0.257-0.22-0.325 0.22 0.206-0.17-0.607-0.03 0.359 0.22 0.219-0.19-0.124 0.18-0.177-0.34 0.276 0.28-0.606-0.1 0.638 0.19-0.489-0.15 0.437 0.15-0.299-0.18 0.174-0.12-0.1 0.28-0.214-0.19 0.663 0.06-0.425-0.05" fill="none" stroke="#000" stroke-linecap="round" stroke-linejoin="round" stroke-width="4"/>
 </g>
 <g transform="translate(-58.77 -3797.8)">
  <path d="m-555.15 4369-0.025-157" fill="none" stroke="#000" stroke-linecap="round" stroke-linejoin="round" stroke-width="4"/>
 </g>
 <g transform="translate(-58.77 -3797.8)">
  <path d="m-551.49 4213.4 0.433-0.7-0.692 0.28 1.46 0.77 0.929 1.52-0.032 0.42 1.654 1.74-0.506 0.09 0.378 0.08 0.402 0.83 1.558 1.37" fill="none" stroke="#000" stroke-linecap="round" stroke-linejoin="round" stroke-width="4"/>
 </g>
 <g transform="translate(-58.77 -3797.8)">
  <path d="m-554.15 4211.8h-0.531l0.203 0.04-0.271 0.03-0.02 0.4-1.503 1.76-1.765 1.03-5.225 4.56-0.242 0.68 0.218 0.56" fill="none" stroke="#000" stroke-linecap="round" stroke-linejoin="round" stroke-width="4"/>
 </g>
 <g transform="translate(-58.77 -3797.8)">
  <path d="m-575.94 4323.6 0.552 0.1-0.372 0.05 0.286 0.19 7.102-0.12 3.686-0.34 0.559-0.21-0.333-0.26" fill="none" stroke="#000" stroke-linecap="round" stroke-linejoin="round" stroke-width="4"/>
 </g>
 <g transform="translate(-58.77 -3797.8)">
  <path d="m-576.56 4320.1 0.039 0.7-0.724-0.75-0.397-2 0.315-0.52-0.559-2.13 3e-3 -1.24 0.889-1.72 1.579-0.05 1.294 0.81 0.922 1.01 0.96 0.39 2.346 3.05 0.538 0.09 0.439-0.09 0.965-1.06 4.339-5.41 1.421-1.11 0.585 0.19-0.117 0.31" fill="none" stroke="#000" stroke-linecap="round" stroke-linejoin="round" stroke-width="4"/>
 </g>
 <g transform="translate(-58.77 -3797.8)">
  <path d="m-575.32 4302.6 0.457 0.38h1.254l2.323-0.51 5.258-0.01 0.938-0.25-0.329-0.23" fill="none" stroke="#000" stroke-linecap="round" stroke-linejoin="round" stroke-width="4"/>
 </g>
 <g transform="translate(-58.77 -3797.8)">
  <path d="m-576.91 4299.4-1.091-0.35-0.103-0.51 0.51-0.87-0.2-0.19 0.711-0.26 1.876-1.89 2.528-1.63 4.249-0.8 1.675 0.25 1.203 1.2-9e-3 0.63 1.138 1.32 1.258 2.25 0.084 1.31" fill="none" stroke="#000" stroke-linecap="round" stroke-linejoin="round" stroke-width="4"/>
 </g>
 <g transform="translate(-58.77 -3797.8)">
  <path d="m-576.93 4285.2 0.068 0.55 4.658-1.62 2.285-1.88-0.199-0.48 0.625-0.35 0.289-0.59-0.463-0.49 0.035-1.11-1.489-1.76-2.36-1.71-2.07-0.75-0.607 0.15" fill="none" stroke="#000" stroke-linecap="round" stroke-linejoin="round" stroke-width="4"/>
 </g>
 <g transform="translate(-58.77 -3797.8)">
  <path d="m-570.77 4279.8 2.497-0.62 4.179 0.45 1.541 0.4-0.395 0.12" fill="none" stroke="#000" stroke-linecap="round" stroke-linejoin="round" stroke-width="4"/>
 </g>
 <g transform="translate(-58.77 -3797.8)">
  <path d="m-526.18 4212 0.025 157" fill="none" stroke="#000" stroke-linecap="round" stroke-linejoin="round" stroke-width="4"/>
 </g>
 <g transform="translate(-58.77 -3797.8)">
  <path d="m-529.24 4369.2 0.406 0.37 0.515-0.08-0.724-0.23-4.477-5.55-1.449-2.49 0.064-0.21 0.744 0.31" fill="none" stroke="#000" stroke-linecap="round" stroke-linejoin="round" stroke-width="4"/>
 </g>
 <g transform="translate(-58.77 -3797.8)">
  <path d="m-523.79 4366.1 0.496 0.29-0.156 0.43-0.339 0.02 0.528 0.03-0.596 0.06 0.113 0.21 0.636-0.47 0.962-1.29 1.276-0.63 0.29-0.59 1.428-0.53 2.569-1.67 0.156-0.26-0.56 0.08-0.768 0.47" fill="none" stroke="#000" stroke-linecap="round" stroke-linejoin="round" stroke-width="4"/>
 </g>
 <g transform="translate(-58.77 -3797.8)">
  <path d="m-542.14 4322-1.599-0.06 0.073 0.33-0.315 0.04h0.69l4.182-0.82 3.44-1.24 2.581-1.63-2.737-1.74-1.278-0.45-5.315-0.91 1.727-0.28" fill="none" stroke="#000" stroke-linecap="round" stroke-linejoin="round" stroke-width="4"/>
 </g>
 <g transform="translate(-58.77 -3797.8)">
  <path d="m-542.28 4304.5 0.223-0.59 0.325-0.06-0.348 0.01 0.437-0.06 0.468 0.41 1.541 0.09 2.227 0.88 2.475 0.31 1.792-0.22 0.715-1.08-0.651-2.98 0.186-2.61 0.539-0.54-0.251-0.2 0.35 0.01" fill="none" stroke="#000" stroke-linecap="round" stroke-linejoin="round" stroke-width="4"/>
 </g>
 <g transform="translate(-58.77 -3797.8)">
  <path d="m-533.98 4289.4-0.605-0.37 0.502 0.48-4.058-0.53-3.149 0.48-2.692-0.43 0.502-3.61 0.614-1.11 0.505-0.32-0.059-0.44 2.659-1.72 1.862-0.36 2.204 1.62 1.102 1.66 0.808 2.88-0.396 0.9-0.831 0.68" fill="none" stroke="#000" stroke-linecap="round" stroke-linejoin="round" stroke-width="4"/>
 </g>
 <g transform="translate(-58.77 -3797.8)">
  <path d="m-617.87 3967.3-2.937-0.21 6.055-0.27 1.924-0.31 0.58-0.54 0.46 0.01-0.233-0.1 2.7-0.04-0.42-0.08 0.389-0.41-0.01-0.68-0.575-0.24-0.873-1.16-1.439-0.8-1.47-0.34-1.321-0.76-0.42-0.35 0.242-0.15-1.091-0.29-1.366-0.96 0.291 0.2-0.267-0.23 0.298 0.19-0.11-0.21 3.963-1.09 1.089-0.75-0.142-0.25 0.732-0.27-0.47-0.19 1.586-0.56-0.703 0.02-0.022-0.31-2.187-0.89-3.301-0.91-1.645-1.05-2.681-0.94-0.783-0.61 0.572 0.02" fill="none" stroke="#000" stroke-linecap="round" stroke-linejoin="round" stroke-width="4"/>
 </g>
 <g transform="translate(-58.77 -3797.8)">
  <path d="m-504.15 4377-107 0.02" fill="none" stroke="#000" stroke-linecap="round" stroke-linejoin="round" stroke-width="4"/>
 </g>
 <g transform="translate(-58.77 -3797.8)">
  <path d="m-615.15 4379 0.02 125" fill="none" stroke="#000" stroke-linecap="round" stroke-linejoin="round" stroke-width="4"/>
 </g>
 <g transform="translate(-58.77 -3797.8)">
  <path d="m-615.13 4505 108-0.02" fill="none" stroke="#000" stroke-linecap="round" stroke-linejoin="round" stroke-width="4"/>
 </g>
 <g transform="translate(-58.77 -3797.8)">
  <path d="m-263.78 4206.9-97 0.01" fill="none" stroke="#000" stroke-linecap="round" stroke-linejoin="round" stroke-width="4"/>
 </g>
 <g transform="translate(-58.77 -3797.8)">
  <path d="m-362.78 4204.9-0.027-168" fill="none" stroke="#000" stroke-linecap="round" stroke-linejoin="round" stroke-width="4"/>
 </g>
 <g transform="translate(-58.77 -3797.8)">
  <path d="m-261.8 4035.9-99 0.01" fill="none" stroke="#000" stroke-linecap="round" stroke-linejoin="round" stroke-width="4"/>
 </g>
 <g transform="translate(-58.77 -3797.8)">
  <path d="m-337.81 3978.9 7e-3 46" fill="none" stroke="#000" stroke-linecap="round" stroke-linejoin="round" stroke-width="4"/>
 </g>
 <g transform="translate(-58.77 -3797.8)">
  <path d="m-345.66 4019.5-0.652 0.59 0.568-0.55-0.251-0.04 0.427-0.07-0.175 0.12 0.282 0.24h-0.376l3.267 2.44 2.564 3.02 0.744 1.56 0.735 0.83 0.401-0.26 0.056 0.5h0.302l-0.369 0.15 0.368-0.18-0.215 0.08 0.302 0.11-0.408-0.07 0.586 0.22 0.173-0.1-0.378-0.25 1.335-0.04 0.761-0.33-0.37 0.16-0.083-0.22 0.387-0.07-0.225-0.1 0.608-0.05-0.198-0.26 0.246-0.9 1.177-1.63 4.021-3.79 2.404-1.55 0.947-0.25-0.45-0.03-1.2 0.75" fill="none" stroke="#000" stroke-linecap="round" stroke-linejoin="round" stroke-width="4"/>
 </g>
 <g transform="translate(-58.77 -3797.8)">
  <path d="m-365.17 4009-0.519-0.23 0.366-0.44 2.337-0.7 14.178-0.42 1.419-0.18-0.697-0.42" fill="none" stroke="#000" stroke-linecap="round" stroke-linejoin="round" stroke-width="4"/>
 </g>
 <g transform="translate(-58.77 -3797.8)">
  <path d="m-365.59 4001.8-0.271-0.09 0.562 0.01 1.926-1.05 1.595-0.31 13.027-1.18 0.917-0.28-0.068-0.26" fill="none" stroke="#000" stroke-linecap="round" stroke-linejoin="round" stroke-width="4"/>
 </g>
 <g transform="translate(-58.77 -3797.8)">
  <path d="m-356.49 3997.8 1.071 2.24-0.321 0.59-0.41 5.38-0.389 0.72" fill="none" stroke="#000" stroke-linecap="round" stroke-linejoin="round" stroke-width="4"/>
 </g>
 <g transform="translate(-58.77 -3797.8)">
  <path d="m-366.33 3984.3 0.693 0.55 1.038 2.44 1.232 1.32 3.885-1.12 2.505-1.44 3.825-2.81 1.718 1.36 0.162 0.93 0.521 0.52 4e-3 1.11 0.437 0.5-0.494 1.75-0.557 0.57" fill="none" stroke="#000" stroke-linecap="round" stroke-linejoin="round" stroke-width="4"/>
 </g>
 <g transform="translate(-58.77 -3797.8)">
  <path d="m-236 4378h-271" fill="none" stroke="#000" stroke-linecap="round" stroke-linejoin="round" stroke-width="4"/>
 </g>
 <g transform="translate(-58.77 -3797.8)">
  <path d="m-237 4504h-283" fill="none" stroke="#000" stroke-linecap="round" stroke-linejoin="round" stroke-width="4"/>
 </g>
 <g transform="translate(-58.77 -3797.8)">
  <path d="m-237 4504v-123" fill="none" stroke="#000" stroke-linecap="round" stroke-linejoin="round" stroke-width="4"/>
 </g>
 <g transform="translate(-58.77 -3797.8)">
  <path d="m-328 4374v-159" fill="none" stroke="#000" stroke-linecap="round" stroke-linejoin="round" stroke-width="4"/>
 </g>
 <g transform="translate(-58.77 -3797.8)">
  <path d="m-319.26 4224.2 0.076 1.19-0.276-1.34-0.536-0.42-0.413-1.26-1.05-1.5-1.853-5.29-0.568-0.42 0.027-0.31" fill="none" stroke="#000" stroke-linecap="round" stroke-linejoin="round" stroke-width="4"/>
 </g>
 <g transform="translate(-58.77 -3797.8)">
  <path d="m-335.02 4226.7 0.134-2.58-0.265-0.28-0.021 0.58 0.352-0.51 1.845-4.96 2.535-3.81 1.954-4.65" fill="none" stroke="#000" stroke-linecap="round" stroke-linejoin="round" stroke-width="4"/>
 </g>
 <g transform="translate(-58.77 -3797.8)">
  <path d="m-350.67 4347.5-1.001 0.26 2.355 0.16 6.699-0.18" fill="none" stroke="#000" stroke-linecap="round" stroke-linejoin="round" stroke-width="4"/>
 </g>
 <g transform="translate(-58.77 -3797.8)">
  <path d="m-351.45 4345 0.757 0.11-1.058-0.15-0.024-1 0.647-1.53 0.943-1.17 1.855-1.48 3.442-0.67 0.574 0.34 0.894-0.14 0.373 0.45 0.755-0.07 0.43 0.49 1.384 0.24 1.067 0.66 1.021 1.02 1.23 3.45" fill="none" stroke="#000" stroke-linecap="round" stroke-linejoin="round" stroke-width="4"/>
 </g>
 <g transform="translate(-58.77 -3797.8)">
  <path d="m-350.44 4326.4-0.258 0.15 0.065-0.4 1.727 0.02 4.652 0.79 3.572 1.85 0.69-0.08 1.412 1.02" fill="none" stroke="#000" stroke-linecap="round" stroke-linejoin="round" stroke-width="4"/>
 </g>
 <g transform="translate(-58.77 -3797.8)">
  <path d="m-349.97 4322.6 0.861 0.05 1.302-0.9 5.332-2.23 4.644-0.61" fill="none" stroke="#000" stroke-linecap="round" stroke-linejoin="round" stroke-width="4"/>
 </g>
 <g transform="translate(-58.77 -3797.8)">
  <path d="m-351.18 4307.2 0.552-1.85 3.443 0.64 7.647-0.11" fill="none" stroke="#000" stroke-linecap="round" stroke-linejoin="round" stroke-width="4"/>
 </g>
 <g transform="translate(-58.77 -3797.8)">
  <path d="m-351.65 4303.1 0.688 2.19" fill="none" stroke="#000" stroke-linecap="round" stroke-linejoin="round" stroke-width="4"/>
 </g>
 <g transform="translate(-58.77 -3797.8)">
  <path d="m-351.92 4299.9-0.016 1.62 0.998 0.03 0.395 0.37 1.368 6.39 0.252 2.1-0.247 0.18" fill="none" stroke="#000" stroke-linecap="round" stroke-linejoin="round" stroke-width="4"/>
 </g>
 <g transform="translate(-58.77 -3797.8)">
  <path d="m-352.25 4290.7-0.81 0.35-0.404-0.37 0.035 0.23 0.054-0.31 0.484-0.12 2.054 0.58 0.541 0.45 1.55 0.41 0.786 0.69 1.691 0.27 0.95 0.7 1.773 0.37 1.204 0.75 2.551 0.45 1.428 0.65" fill="none" stroke="#000" stroke-linecap="round" stroke-linejoin="round" stroke-width="4"/>
 </g>
 <g transform="translate(-58.77 -3797.8)">
  <path d="m-351.54 4288 0.197-0.37 0.692-0.07 0.376-0.54 1.052 0.12 0.513-0.32 3.928-0.3 4.534-1.03 1.336 0.02 0.365-0.3 0.343 0.22" fill="none" stroke="#000" stroke-linecap="round" stroke-linejoin="round" stroke-width="4"/>
 </g>
 <g transform="translate(-58.77 -3797.8)">
  <path d="m-345.17 4285.4 0.809 3.32 0.216 3.41" fill="none" stroke="#000" stroke-linecap="round" stroke-linejoin="round" stroke-width="4"/>
 </g>
 <g transform="translate(-58.77 -3797.8)">
  <path d="m-345.25 4320.2 0.371-0.15-0.098-0.21-0.438 0.43 0.408 2.27 1.475 3.06" fill="none" stroke="#000" stroke-linecap="round" stroke-linejoin="round" stroke-width="4"/>
 </g>
 <g transform="translate(-58.77 -3797.8)">
  <path d="m-337.6 4345.3 0.086 0.81-0.386 0.32 0.537-0.36 0.589 0.55-9e-3 0.36-0.934 0.48-0.271-0.21-0.675 0.55-0.37-0.17-0.081 0.58-0.495-0.74" fill="none" stroke="#000" stroke-linecap="round" stroke-linejoin="round" stroke-width="4"/>
 </g>
 <g transform="translate(-58.77 -3797.8)">
  <path d="m-289 4375v-162" fill="none" stroke="#000" stroke-linecap="round" stroke-linejoin="round" stroke-width="4"/>
 </g>
 <g transform="translate(-58.77 -3797.8)">
  <path d="m-281.49 4221.3-0.354 0.05 0.335 0.04 0.148 0.6-0.471-0.42-0.019 0.26-3.81-4.42-0.325-0.06-1.147-2.81-0.586-0.57-0.213-1.15-0.152 0.15-0.09-1.04 0.564-0.23" fill="none" stroke="#000" stroke-linecap="round" stroke-linejoin="round" stroke-width="4"/>
 </g>
 <g transform="translate(-58.77 -3797.8)">
  <path d="m-290.07 4211 0.038-0.36 0.196 0.08-0.257 0.18-0.104-0.43-0.133 0.48 0.011-0.28 8e-3 0.98-1.169 3.02-1.597 6.9-1.092 1.45-1.424 1.11-0.049 0.77" fill="none" stroke="#000" stroke-linecap="round" stroke-linejoin="round" stroke-width="4"/>
 </g>
 <g transform="translate(-58.77 -3797.8)">
  <path d="m-312.27 4352.2 1.909-0.11-0.365 0.53-0.258-0.16 0.618-0.66 0.212 0.33 0.086-0.31 0.443 0.22 0.302-0.64 0.521 0.32 3.876-1.05 3.683-1.39 0.665-0.83-0.043-0.49-0.079 0.27-0.549-1.02-0.196 0.18-0.616-0.81-4.711-2.14-1.847-1.21-1.663-1.8-0.215-0.99 0.251-0.79" fill="none" stroke="#000" stroke-linecap="round" stroke-linejoin="round" stroke-width="4"/>
 </g>
 <g transform="translate(-58.77 -3797.8)">
  <path d="m-310.5 4331.4-1.224-0.04 3e-3 -0.24 1.177 0.35 0.318-0.22 1.57 0.35 0.464-0.16 2.5 0.86 0.544-0.17 2.618 1.03 2.014 0.26 0.444-3.82-0.244-3.37 0.411-0.68" fill="none" stroke="#000" stroke-linecap="round" stroke-linejoin="round" stroke-width="4"/>
 </g>
 <g transform="translate(-58.77 -3797.8)">
  <path d="m-302.61 4313.9-0.346-0.29-0.059 0.33-0.634 0.18-0.557-0.59-0.271 0.3-5.804-0.12-0.348-0.37-0.891 0.34-0.346-0.27-0.653 0.2-0.419-0.41-0.6 0.4-1.822 0.28 0.123-0.39 0.196 0.45 0.652 0.09" fill="none" stroke="#000" stroke-linecap="round" stroke-linejoin="round" stroke-width="4"/>
 </g>
 <g transform="translate(-58.77 -3797.8)">
  <path d="m-312.72 4312.5-1.959 0.2-0.086-0.37 0.577-0.01 0.026-0.26-0.244-0.24-0.175 0.46-0.821-2.8 0.299-1.71 0.449-0.71 0.49-0.15 0.626-1.14 1.872-1.23 2.795-0.77 0.591-0.6 1.812 0.36 0.103 0.4 1.705-0.19 0.251 0.33 0.036-0.29 0.665 1.64 0.893 0.57 1.062 2.34 0.432 2.4-0.13 2.33 0.722 1.55-0.077-0.41-0.155 0.49-0.166-0.18 0.175 0.47-0.405 0.71" fill="none" stroke="#000" stroke-linecap="round" stroke-linejoin="round" stroke-width="4"/>
 </g>
 <g transform="translate(-58.77 -3797.8)">
  <path d="m-566.81 4107.7 0.432 0.78-4.151 9.85-2.075 6.73-1.866 7.68-1.916 5.05" fill="none" stroke="#000" stroke-linecap="round" stroke-linejoin="round" stroke-width="4"/>
 </g>
 <g transform="translate(-58.77 -3797.8)">
  <path d="m-564.65 4113.2 0.228-0.2 1.25 1.56 1.642 4.59 1.939 7.63 1.953 4.81 0.562 0.64 2.184 6.77" fill="none" stroke="#000" stroke-linecap="round" stroke-linejoin="round" stroke-width="4"/>
 </g>
 <g transform="translate(-58.77 -3797.8)">
  <path d="m-556.91 4129-4.065 0.54-5.838 1.76-1.379 0.1-0.643 0.56-2.033-0.56" fill="none" stroke="#000" stroke-linecap="round" stroke-linejoin="round" stroke-width="4"/>
 </g>
 <g transform="translate(-58.77 -3797.8)">
  <path d="m-529.21 4112.1 0.178 1.22-0.6-1.89-1.357-0.28-0.211-0.54-0.347 0.36-1.355 0.14-1.361-0.73-1.502 0.18-2.33 2.09-0.234 0.87-0.169-0.43-0.137 0.49-0.493-0.16-0.173 0.59-0.709-0.08-0.59 0.62-3.479 7.42-0.698 5.79 0.113 4.69 2.575 5.56 2.559 2.92 0.356-0.22 0.473 0.43 2.138-0.04 3.503-0.85 3.184-2.47 0.584-0.83 3.436-1.81 1.019-1.21 0.723-2.05 0.184-1.62-0.844-2.05-0.227 0.24-0.472-0.55-1.032-0.3-2.893-0.2-1.138 0.37-2.642 0.12-0.56 0.68" fill="none" stroke="#000" stroke-linecap="round" stroke-linejoin="round" stroke-width="4"/>
 </g>
 <g transform="translate(-58.77 -3797.8)">
  <path d="m-513.03 4114.8 0.72 0.29-1.237 1.85-0.459 1.85-0.07 2.39 0.412 5.58 1.396 6.32 0.638 1.5 0.565 0.29 1.152 2.16 2.008 2.46 1.542 0.81 1.591 0.27 3.13-1.54 4.409-4.53 2.665-4 1.835-4.78 0.712-4.9-0.269-3.59-1.772-3.09-1.867-1.55" fill="none" stroke="#000" stroke-linecap="round" stroke-linejoin="round" stroke-width="4"/>
 </g>
 <g transform="translate(-58.77 -3797.8)">
  <path d="m-562.66 4434 0.579 0.18 0.105-0.24-1.054-1.24-2.492-0.78-1.435-0.01-3.109 1.29-2.989 1.62-1.517 4.25 5.75 6.15 3.59 2.74 1.345 1.84 0.222 1.83-0.244 0.5-1.478 0.61-2.616 0.45-6.632-0.84" fill="none" stroke="#000" stroke-linecap="round" stroke-linejoin="round" stroke-width="4"/>
 </g>
 <g transform="translate(-58.77 -3797.8)">
  <path d="m-553.81 4435.6 0.234-0.07-0.404 0.37-0.144 1.22 0.252 2.53 0.901 2.48 1.562 1.73 1.009 0.16 1.535-0.14 2.531-1.61 4.2-4.32 0.798-2.32-0.78 1.24" fill="none" stroke="#000" stroke-linecap="round" stroke-linejoin="round" stroke-width="4"/>
 </g>
 <g transform="translate(-58.77 -3797.8)">
  <path d="m-548.34 4443.5 0.218 2.1-0.46 5.1 0.327 2.44" fill="none" stroke="#000" stroke-linecap="round" stroke-linejoin="round" stroke-width="4"/>
 </g>
 <g transform="translate(-58.77 -3797.8)">
  <path d="m-525.32 4439.2 0.034-0.94-0.931 0.44-1.939-0.23-0.67 0.52-0.966-0.11-0.615 0.77-0.486-0.05-2.854 1.44 0.886 2.33 0.102-0.22 0.99 0.47 0.707 0.93 1.478 0.39 1.902 1.68 1.04 1.35 1.082 2.24-4.308 1.27-3.102 1.62-0.626 0.06" fill="none" stroke="#000" stroke-linecap="round" stroke-linejoin="round" stroke-width="4"/>
 </g>
 <g transform="translate(-58.77 -3797.8)">
  <path d="m-510.55 4440.9-0.351 0.95-0.639 5.44-0.491 7.13 0.067 1.92 0.32 0.89 0.96 0.95" fill="none" stroke="#000" stroke-linecap="round" stroke-linejoin="round" stroke-width="4"/>
 </g>
 <g transform="translate(-58.77 -3797.8)">
  <path d="m-504.97 4440.6-0.203-0.44-0.234 0.45-0.187-0.35-0.962 0.7-1.924 0.26-5.899-0.69-1.075 0.32-0.427-0.39-1.288 0.99" fill="none" stroke="#000" stroke-linecap="round" stroke-linejoin="round" stroke-width="4"/>
 </g>
 <g transform="translate(-58.77 -3797.8)">
  <path d="m-486.5 4437.1 1.589 0.27-1.073-0.06-0.038 0.33-0.143-0.44-0.117 0.24-0.422-0.32-1.63 0.09-4.758 1.39-0.493-0.2-1.36 0.3-0.091-0.22-0.622 0.44 0.177 0.15-0.583-0.07-0.037-0.26-0.087 0.46-0.096-0.41 0.131 0.42-0.188-0.25-0.258 0.48-0.623-0.14-0.026-0.29-0.042 0.27 0.2-0.06-0.324-0.27 0.015 0.46 0.218-0.51-0.184 0.69 0.307 0.27 0.099 4.27-0.61 5.32 0.336 0.41-0.299 0.64 0.699 2.15-0.358 1.12 0.243-0.25 0.088 0.84 0.067-0.22v0.39l0.148-0.2-0.27 0.14 0.086 0.83 0.561 0.69 0.333-0.38 2.098 0.42 2.29-0.14 0.575 0.41 0.927-0.17 0.593 0.45 0.934-0.17 0.491 0.35 1.926-0.38" fill="none" stroke="#000" stroke-linecap="round" stroke-linejoin="round" stroke-width="4"/>
 </g>
 <g transform="translate(-58.77 -3797.8)">
  <path d="m-488.29 4447.9-0.413-0.3-0.215 0.33-1.873 0.07-5.684 1.73-1.308-0.17" fill="none" stroke="#000" stroke-linecap="round" stroke-linejoin="round" stroke-width="4"/>
 </g>
 <g transform="translate(-58.77 -3797.8)">
  <path d="m-476.13 4436.9 0.696 0.41-0.784 0.98 0.057 0.54-0.372 0.14-1.282 15.09-0.717 3.67 0.239 0.73 0.173-0.14 0.251-1.4" fill="none" stroke="#000" stroke-linecap="round" stroke-linejoin="round" stroke-width="4"/>
 </g>
 <g transform="translate(-58.77 -3797.8)">
  <path d="m-475.54 4439.8 0.584 0.02 0.208-0.87-0.268 1.22 1.522 5.31 1.502 2.76 0.995 0.58 0.913-0.24 1.944-1.56 5.105-5.43 1.375-2.13-0.082 0.3 0.536 0.6 0.205 2 0.068 9.23 0.673 3.35 0.463 0.87 0.67 0.16" fill="none" stroke="#000" stroke-linecap="round" stroke-linejoin="round" stroke-width="4"/>
 </g>
 <g transform="translate(-58.77 -3797.8)">
  <path d="m-434.91 4439.7-0.386 0.21-0.133 0.7-0.818 11.62 0.298 4.97 0.269 0.31 0.699-0.75" fill="none" stroke="#000" stroke-linecap="round" stroke-linejoin="round" stroke-width="4"/>
 </g>
 <g transform="translate(-58.77 -3797.8)">
  <path d="m-432.55 4441 0.326 0.15 0.445 1.12 1.228 6.64 1.303 2.05 1.61 0.99 0.498-0.39 0.293 0.25 0.786-0.75 0.37 0.09 4.296-5.51 2.789-2.13 0.572 0.59 0.214-0.3 0.413 1.76-0.478 11.74 0.29 2.58 0.125 0.28 0.18-0.42" fill="none" stroke="#000" stroke-linecap="round" stroke-linejoin="round" stroke-width="4"/>
 </g>
 <g transform="translate(-58.77 -3797.8)">
  <path d="m-394 4438h-15" fill="none" stroke="#000" stroke-linecap="round" stroke-linejoin="round" stroke-width="4"/>
 </g>
 <g transform="translate(-58.77 -3797.8)">
  <path d="m-409.57 4440.1-0.492-0.14 0.259 0.51-0.295 0.47 0.138-0.18 0.03 0.51-0.591 3.44-0.143 6.06 0.289 2 0.158-0.2 0.318 0.36 0.196 4.14 0.305 0.67-7e-3 -0.83 0.339-0.23" fill="none" stroke="#000" stroke-linecap="round" stroke-linejoin="round" stroke-width="4"/>
 </g>
 <g transform="translate(-58.77 -3797.8)">
  <path d="m-407.81 4457.2-0.165-0.52-0.375 0.38 0.21 0.02-0.024-0.56 0.128 0.78 0.05-0.45 0.332-0.1 0.204 0.39 2.126-0.69 2.413 0.17 1.017-0.46 0.549 0.32 1.472-0.49 0.542 0.23 1.188-0.3 0.319 0.3 0.674-0.15 0.158 0.53 0.704 0.49-0.175 0.34-0.139-0.25" fill="none" stroke="#000" stroke-linecap="round" stroke-linejoin="round" stroke-width="4"/>
 </g>
 <g transform="translate(-58.77 -3797.8)">
  <path d="m-399.49 4448.4-1.585 0.44-0.311-0.45-0.169 0.35-0.724-0.1-1.375 0.43-0.506-0.63-0.632 0.35-2.8-0.1" fill="none" stroke="#000" stroke-linecap="round" stroke-linejoin="round" stroke-width="4"/>
 </g>
 <g transform="translate(-58.77 -3797.8)">
  <path d="m-385.28 4439.7-0.657 3.66-0.243 6.34 0.388 5.46 0.699 2.27" fill="none" stroke="#000" stroke-linecap="round" stroke-linejoin="round" stroke-width="4"/>
 </g>
 <g transform="translate(-58.77 -3797.8)">
  <path d="m-384.02 4441.6 1.421 0.63-0.844 0.05-0.144 0.38 0.133-0.26 0.484 0.96 0.221-0.32 0.102 0.83 1.79 2.47 4.589 5.37 0.387-0.9 0.363-0.37 0.18 0.18 1.35-1.82 0.304 0.07 0.99-1.72 3.79-3.49 1.383-2.37 0.444-0.1 0.588 1.65 0.065 4.15 0.805 3.33 0.453 4.67 0.586 2.02 0.805 1.52 0.178-0.4" fill="none" stroke="#000" stroke-linecap="round" stroke-linejoin="round" stroke-width="4"/>
 </g>
 <g transform="translate(-58.77 -3797.8)">
  <path d="m-346.61 4454.3-0.131-0.45 0.376 0.37 0.396-0.74 0.791 0.19 1.255-0.62 1.877-1.94 1.082-1.64 0.949-2.66-0.438-2.47-0.848-1.47-1.539-1.84-0.205 0.11-1.092-1.19-1.149-0.69-0.869-0.25-1.702 0.27-1.025 0.46-1.964 1.96-1.868 3.15-1.453 5.53" fill="none" stroke="#000" stroke-linecap="round" stroke-linejoin="round" stroke-width="4"/>
 </g>
 <g transform="translate(-58.77 -3797.8)">
  <path d="m-328.74 4440.8-0.113-0.92-0.355 0.14 0.424 2.28-0.028 4.73 0.519 8.1 0.294 0.99" fill="none" stroke="#000" stroke-linecap="round" stroke-linejoin="round" stroke-width="4"/>
 </g>
 <g transform="translate(-58.77 -3797.8)">
  <path d="m-326.83 4441.3-0.311-0.14 0.052-0.51 0.262 0.01 0.559-1.23 0.807-0.26 0.126 0.23 1.384-0.04 2.01 1.06 1.866 2.34 1.204 0.79 0.18 1.34-1.042 1.75-1.86 2.53-0.494 0.15-0.142 0.66-0.774 0.39-0.148 0.65-0.317-0.08-1.124 0.87 0.282-0.22 0.104 0.33 0.156-0.38-0.063 0.41-0.274-0.26 0.74 0.6 0.076 0.43 0.404-0.22 0.224 0.44 0.492 0.06 6.39 6.29 0.736 0.27-0.025-0.3-0.458 0.4-0.419-0.11" fill="none" stroke="#000" stroke-linecap="round" stroke-linejoin="round" stroke-width="4"/>
 </g>
 <g transform="translate(-58.77 -3797.8)">
  <path d="m-310.46 4439.9-0.374 2.43 0.9 2.76 0.962 1.62 1.238 1.31 1.441 0.47 2.27-0.15 0.456 0.32 1.619-1.25 1.846-1.94 1.557-2.89 0.41-1-0.417 0.35" fill="none" stroke="#000" stroke-linecap="round" stroke-linejoin="round" stroke-width="4"/>
 </g>
 <g transform="translate(-58.77 -3797.8)">
  <path d="m-305.15 4450.9-0.193 0.74 0.74 7.1 0.206 0.07-0.049-0.5 0.114 0.29" fill="none" stroke="#000" stroke-linecap="round" stroke-linejoin="round" stroke-width="4"/>
 </g>
 <g transform="translate(-58.77 -3797.8)">
  <path d="m-351.32 4449.6h-0.586l0.077 0.45 1.85 3.55 0.627 0.72 0.281-0.28 0.483 0.46 0.82-0.02" fill="none" stroke="#000" stroke-linecap="round" stroke-linejoin="round" stroke-width="4"/>
 </g>
 <g transform="translate(-58.77 -3797.8)">
  <path d="m-192 4500v-118" fill="none" stroke="#000" stroke-linecap="round" stroke-linejoin="round" stroke-width="4"/>
 </g>
 <g transform="translate(-58.77 -3797.8)">
  <path d="m-64 4381h-129" fill="none" stroke="#000" stroke-linecap="round" stroke-linejoin="round" stroke-width="4"/>
 </g>
 <g transform="translate(-58.77 -3797.8)">
  <path d="m-192 4507h123" fill="none" stroke="#000" stroke-linecap="round" stroke-linejoin="round" stroke-width="4"/>
 </g>
 <g transform="translate(-58.77 -3797.8)">
  <path d="m-66 4506v-122" fill="none" stroke="#000" stroke-linecap="round" stroke-linejoin="round" stroke-width="4"/>
 </g>
 <g transform="translate(-58.77 -3797.8)">
  <path d="m-174.86 4409.7 0.994-0.11 0.211-0.73 0.176 0.38-0.176-0.57-0.112 0.48-0.18-0.43-0.387 0.67-0.898-0.55-0.732 0.24-0.419-0.34-0.809 0.44-0.325-0.32-3.023 2.49-1.425 2.04-0.618 1.61 0.85 4.5 1.776 3.08 2.09 1.59 0.612-0.32 1.215 0.06" fill="none" stroke="#000" stroke-linecap="round" stroke-linejoin="round" stroke-width="4"/>
 </g>
 <g transform="translate(-58.77 -3797.8)">
  <path d="m-168.08 4421.2 0.157 0.3 0.068-0.29 0.607 0.1 0.301 0.51 0.967-0.6 0.164 0.35 1.753-1.44 1.308-1.83-0.068-0.87-0.175 0.21-0.465-0.95-1.777-1.27-2.083 0.07-2.094 1.58-1.066 1.85" fill="none" stroke="#000" stroke-linecap="round" stroke-linejoin="round" stroke-width="4"/>
 </g>
 <g transform="translate(-58.77 -3797.8)">
  <path d="m-155.78 4410.5 0.609 13.37" fill="none" stroke="#000" stroke-linecap="round" stroke-linejoin="round" stroke-width="4"/>
 </g>
 <g transform="translate(-58.77 -3797.8)">
  <path d="m-152.99 4414.6 0.628 0.82 0.328-0.24 0.991 0.74 4.49 5.81 0.456 1.43 0.957-3.31 0.243-5.58" fill="none" stroke="#000" stroke-linecap="round" stroke-linejoin="round" stroke-width="4"/>
 </g>
 <g transform="translate(-58.77 -3797.8)">
  <path d="m-135.22 4410.5 0.91-0.04 0.609 0.7-0.814 3.58-0.171 2.66 0.7 3.37 0.895 1.44" fill="none" stroke="#000" stroke-linecap="round" stroke-linejoin="round" stroke-width="4"/>
 </g>
 <g transform="translate(-58.77 -3797.8)">
  <path d="m-131.52 4414.5 0.217 0.09-2e-3 -0.28-0.465-0.13-3.48-0.32-0.802 0.34-1.076-0.18-0.511 0.45-0.907-0.39-0.303 0.49-0.91-0.34-0.893 0.49" fill="none" stroke="#000" stroke-linecap="round" stroke-linejoin="round" stroke-width="4"/>
 </g>
 <g transform="translate(-58.77 -3797.8)">
  <path d="m-124.38 4423.4-0.127-0.18-0.306 0.39-0.1-0.37 0.59-1.32 0.15-1.9-1.075-5.16 1.664-2.14 0.713-0.44 0.377 0.2 0.222-0.33 1.664 1.16 0.761 2.21-0.018 0.61-1.86 1.84-0.667 1.28 0.047 0.68 2.354 2.29 1.317 0.54 1.271 0.09" fill="none" stroke="#000" stroke-linecap="round" stroke-linejoin="round" stroke-width="4"/>
 </g>
 <g transform="translate(-58.77 -3797.8)">
  <path d="m-108.31 4423.1 0.332 1.34 1.441-0.1 1.74-0.65 2.41-3.45 0.239-0.79 0.104-1.46-0.601-2.61-1.08-0.23-0.613-0.6-0.579 0.31-1.991-0.21-2.33 1.01-1.545 1.07-0.824 1.05-0.278 1.42" fill="none" stroke="#000" stroke-linecap="round" stroke-linejoin="round" stroke-width="4"/>
 </g>
 <g transform="translate(-58.77 -3797.8)">
  <path d="m-92.36 4413.3-1.759 5.75-0.1172 2.02 0.4516 1.59 0.7114 0.56 2.1701 0.74 4.2589-0.42 1.2866 0.24-0.0985 0.3" fill="none" stroke="#000" stroke-linecap="round" stroke-linejoin="round" stroke-width="4"/>
 </g>
 <g transform="translate(-58.77 -3797.8)">
  <path d="m-171.33 4439.9-0.134-0.25-0.266 0.22-0.144-0.53-0.178 0.38-0.162-0.46 0.021 0.46-1.312 1.26-2.453 0.8-0.642 0.6-0.373 1.45 0.334 2.03 1.171 1.98 1.812 1.48 2.25 2.74 0.278 1.11-0.291 1.44-0.595 0.32-1.826-0.15-0.416 0.23-3.782-1.43" fill="none" stroke="#000" stroke-linecap="round" stroke-linejoin="round" stroke-width="4"/>
 </g>
 <g transform="translate(-58.77 -3797.8)">
  <path d="m-161.17 4439.6-0.439 3.36 0.12 5.82 0.545 2.62 0.397 0.31 0.548-0.38" fill="none" stroke="#000" stroke-linecap="round" stroke-linejoin="round" stroke-width="4"/>
 </g>
 <g transform="translate(-58.77 -3797.8)">
  <path d="m-159.45 4444.3-0.064-0.52-3.421 0.06-5.074 1.21" fill="none" stroke="#000" stroke-linecap="round" stroke-linejoin="round" stroke-width="4"/>
 </g>
 <g transform="translate(-58.77 -3797.8)">
  <path d="m-148.29 4443-0.3-0.13-1.837 2.4-1.14 3.15-1.088 5.28 0.057 2.1" fill="none" stroke="#000" stroke-linecap="round" stroke-linejoin="round" stroke-width="4"/>
 </g>
 <g transform="translate(-58.77 -3797.8)">
  <path d="m-144.19 4445.6 4.36 13.09 0.297 0.35 0.075-0.43" fill="none" stroke="#000" stroke-linecap="round" stroke-linejoin="round" stroke-width="4"/>
 </g>
 <g transform="translate(-58.77 -3797.8)">
  <path d="m-143.77 4450.6-0.268-0.2-0.173 0.25-1.862 0.25-0.636 0.51-1.425 0.06-4.524 2.06" fill="none" stroke="#000" stroke-linecap="round" stroke-linejoin="round" stroke-width="4"/>
 </g>
 <g transform="translate(-58.77 -3797.8)">
  <path d="m-125.36 4444.8-1.231-0.19 0.181-0.14 0.093 0.41 0.175 7.01 0.255 1.45 0.169 0.34 0.303-0.13" fill="none" stroke="#000" stroke-linecap="round" stroke-linejoin="round" stroke-width="4"/>
 </g>
 <g transform="translate(-58.77 -3797.8)">
  <path d="m-120.48 4444.1-0.216-0.29-1.64 0.06-0.512 0.38-4.521 0.17-2.688 0.33-3.198 1.1-0.788-0.25" fill="none" stroke="#000" stroke-linecap="round" stroke-linejoin="round" stroke-width="4"/>
 </g>
 <g transform="translate(-58.77 -3797.8)">
  <path d="m-114.48 4444.8-0.903 0.23-0.323 0.62-0.488 4.94 1.056 3.73 1.398 0.9 3.392-0.45 1.047-1 1.261-0.44 0.83-1.11 0.696-2.64-0.405-4.15" fill="none" stroke="#000" stroke-linecap="round" stroke-linejoin="round" stroke-width="4"/>
 </g>
 <g transform="translate(-58.77 -3797.8)">
  <path d="m-90.538 4444.8 0.7297 0.17-0.5401 0.41-0.8003 0.17-0.7364-0.27-4.5765 1-0.6042 0.99 0.0596 0.49 1.1769 1.48 2.5131 1.92 1.5522 1.62-0.4184 1.17-0.1839-0.21-0.2965 0.56-0.8751 0.22-0.4442 0.62-2.3017-0.21-3.3133-1.21" fill="none" stroke="#000" stroke-linecap="round" stroke-linejoin="round" stroke-width="4"/>
 </g>
 <g transform="translate(-58.77 -3797.8)">
  <path d="m-153.29 4478.4-0.028-0.46-0.262 0.21 0.046 6.44 0.873 4.2" fill="none" stroke="#000" stroke-linecap="round" stroke-linejoin="round" stroke-width="4"/>
 </g>
 <g transform="translate(-58.77 -3797.8)">
  <path d="m-150.7 4478.2-0.651 0.29-0.2-0.2 0.143 0.21 0.359-0.47 0.135 0.28 1.461-0.94 0.366 0.18 1.302-0.3 4.244 0.59 0.347 0.43 0.566 0.05 0.024 1.41-0.989 1.37-2.64 2.62-1.901 0.9 3.337 5.24 1.01 0.89 1.47 0.47 0.375-0.29-0.305-0.54" fill="none" stroke="#000" stroke-linecap="round" stroke-linejoin="round" stroke-width="4"/>
 </g>
 <g transform="translate(-58.77 -3797.8)">
  <path d="m-126.46 4473.2-0.384 0.75-2.557-1.14-1.395-0.07-1.086 0.46-0.408-0.29-2.293 1.44-0.341-0.15-0.2 0.39-0.256-0.25-0.661 1.04-1.033 4.21 0.305 4.02 1.697 1.91 3.208 0.47 3.474-0.65 0.663-0.62 0.214 0.24 0.065-0.47-0.114 0.36" fill="none" stroke="#000" stroke-linecap="round" stroke-linejoin="round" stroke-width="4"/>
 </g>
 <g transform="translate(-58.77 -3797.8)">
  <path d="m-129.97 4479.1-1.44 0.02-0.192 0.28-0.465-0.32-4.051 0.99-0.787-0.15-0.181-0.48" fill="none" stroke="#000" stroke-linecap="round" stroke-linejoin="round" stroke-width="4"/>
 </g>
 <g transform="translate(-58.77 -3797.8)">
  <path d="m-109.46 4476.6-0.498-0.58-0.235 0.16-2.013-0.87-3.035-0.44-2.818 0.8-1.829 1.07-2.422 3.81-0.623 1.99 0.033 2.49 0.556 0.97 1.885 1.82h0.677l0.562 0.57 1.14-0.22 0.409 0.23 4.806-1.17 0.793-0.73 0.123 0.18 0.383-0.69 0.134 0.25 0.497-1.1-0.926-1.25-1.23-0.44-2.483-0.13-0.612 0.38-0.596-0.14" fill="none" stroke="#000" stroke-linecap="round" stroke-linejoin="round" stroke-width="4"/>
 </g>
 <g transform="translate(-58.77 -3797.8)">
  <path d="m-101.15 4487.4 0.937 0.6-0.095-0.61-0.254-0.38-0.195 0.13-0.309-0.81-0.309 0.19-0.524-0.26" fill="none" stroke="#000" stroke-linecap="round" stroke-linejoin="round" stroke-width="4"/>
 </g>
 <g transform="translate(-58.77 -3797.8)">
  <path d="m-192.25 4504.5 0.122 0.78 0.205-1.44-0.467-0.16 0.604-1.65 0.088-1.68" fill="none" stroke="#000" stroke-linecap="round" stroke-linejoin="round" stroke-width="4"/>
 </g>
 <g transform="translate(-58.77 -3797.8)">
  <path d="m-613.11 4043.4-0.545-0.07 0.179-2.72-0.477-2.37" fill="none" stroke="#000" stroke-linecap="round" stroke-linejoin="round" stroke-width="4"/>
 </g>
 <g transform="translate(-58.77 -3797.8)">
  <path d="m-476 3970v62" fill="none" stroke="#000" stroke-linecap="round" stroke-linejoin="round" stroke-width="4"/>
 </g>
 <g transform="translate(-58.77 -3797.8)">
  <path d="m-477.09 4032.9 0.624 0.25 0.966-1.15 1.17-2.5 6.233-5.54-0.406 0.75" fill="none" stroke="#000" stroke-linecap="round" stroke-linejoin="round" stroke-width="4"/>
 </g>
 <g transform="translate(-58.77 -3797.8)">
  <path d="m-477.07 4033-1.31-0.23 0.164 0.37 0.087-0.26-0.512 0.03-1.123-0.64-5.633-5.56-1.222-2.01 0.088-0.71 0.065 0.41" fill="none" stroke="#000" stroke-linecap="round" stroke-linejoin="round" stroke-width="4"/>
 </g>
 <g transform="translate(-58.77 -3797.8)">
  <path d="m-496.45 4003.5-1.33-0.13-0.111-0.55 0.253 0.37-0.043-0.46 0.192 0.66 0.026-0.37-0.392 0.08 0.121 5.07-0.429 3.9 0.151 0.63 0.033-0.39 0.1 0.33 0.141-0.33 0.693-0.04 0.388 0.63 0.401-0.53 0.97-0.33 0.316 0.33 0.537-0.46 2.085-0.56 2.554-0.29 1.769 0.49 0.337-0.39 0.537 0.07 0.044-0.28 0.013 0.25 0.351-0.04-0.195-0.26 0.26-0.85 0.236 0.18 0.07-0.49 0.12 0.34 0.319-0.25 0.108-1.28 0.294-0.16 0.448-4.9-0.081-1.1-0.186 1.08" fill="none" stroke="#000" stroke-linecap="round" stroke-linejoin="round" stroke-width="4"/>
 </g>
 <g transform="translate(-58.77 -3797.8)">
  <path d="m-489.7 4003.5-1.776-0.12-0.155-0.44 0.719 0.93-0.341 0.13 0.18 0.34-0.703 1.47-0.242-0.05-0.754 4.39" fill="none" stroke="#000" stroke-linecap="round" stroke-linejoin="round" stroke-width="4"/>
 </g>
 <g transform="translate(-58.77 -3797.8)">
  <path d="m-487.71 3994.9 0.225-1.53 0.56 0.02-0.146 0.29-0.244-0.39 0.246 0.25-0.681 0.1-0.118-0.46-0.494 0.54-1.057 0.22-0.074-0.29-0.321 0.35-1.176 0.22-1.393-0.17-1.499 0.48-0.367-0.32-0.377 0.54-1.839 0.55-1.259 0.1-0.172 0.26-0.317-0.35-0.188 0.43 5e-3 -0.4-0.473 0.78 0.056-0.78-0.227 0.21 0.39-0.15-0.061 0.31 0.107-0.31 0.016 0.33 0.058-0.55 0.059 0.41 0.141-1.64 0.762-1.09 1.324-0.61 2.112-2.15 1.466-0.96 2.75-3.18 0.903-0.52 0.091 0.34 0.354-0.37 0.109 0.34 0.091-0.48 0.683-0.17-0.115-0.41 0.165 0.56 0.216-0.29-0.513-0.47 0.244 0.37-0.303 0.15-2.331-0.67-0.382 0.25-0.247-0.49-1.327 0.83-0.245-0.27-2.449 1.04-1.742-0.22-0.517 0.2-0.224-0.29-0.483 0.3-0.226-0.27-1.06 0.41-0.175 0.4-0.346-0.28-0.561 0.24-0.269-0.44 0.702-1.5" fill="none" stroke="#000" stroke-linecap="round" stroke-linejoin="round" stroke-width="4"/>
 </g>
 <g transform="translate(-58.77 -3797.8)">
  <path d="m192.17 4253h-129.44" fill="none" stroke="#000" stroke-linecap="round" stroke-linejoin="round" stroke-width="4"/>
 </g>
 <g transform="translate(-58.77 -3797.8)">
  <path d="m82.093 4272.5 0.2519-0.26 0.011 0.59-0.7451 11.74 0.1457 1.73 0.3605 0.17 0.4593-0.81" fill="none" stroke="#000" stroke-linecap="round" stroke-linejoin="round" stroke-width="4"/>
 </g>
 <g transform="translate(-58.77 -3797.8)">
  <path d="m86.065 4273.6 0.1954-0.7-1.5837 0.74-0.9691-0.16-0.6076 0.41-1.9717-0.23-3.879 0.56-0.5129-0.27-1.9145 0.52" fill="none" stroke="#000" stroke-linecap="round" stroke-linejoin="round" stroke-width="4"/>
 </g>
 <g transform="translate(-58.77 -3797.8)">
  <path d="m94.283 4283.4 0.1976 0.5 0.2048-0.25-0.6153-0.48-0.4952-1.42-0.7727-4.52" fill="none" stroke="#000" stroke-linecap="round" stroke-linejoin="round" stroke-width="4"/>
 </g>
 <g transform="translate(-58.77 -3797.8)">
  <path d="m94.108 4267.3-0.0216 1.14" fill="none" stroke="#000" stroke-linecap="round" stroke-linejoin="round" stroke-width="4"/>
 </g>
 <g transform="translate(-58.77 -3797.8)">
  <path d="m103.59 4270.2-0.225-0.37-0.445 4.45 0.16 7.29 0.393 1.48 2.213-7.01 0.777-3.66 0.326 1.82 1.874 3.05 0.929 0.02 2.985-2.02 1.259-0.57 0.646 0.04 1.924 2.53 0.985 3.68 0.127-0.34" fill="none" stroke="#000" stroke-linecap="round" stroke-linejoin="round" stroke-width="4"/>
 </g>
 <g transform="translate(-58.77 -3797.8)">
  <path d="m126.41 4284 0.293-1.18-1.243-9.82" fill="none" stroke="#000" stroke-linecap="round" stroke-linejoin="round" stroke-width="4"/>
 </g>
 <g transform="translate(-58.77 -3797.8)">
  <path d="m125.62 4268 0.456-0.56-0.34 1" fill="none" stroke="#000" stroke-linecap="round" stroke-linejoin="round" stroke-width="4"/>
 </g>
 <g transform="translate(-58.77 -3797.8)">
  <path d="m135.44 4278.2 0.467-0.34 0.251-1.25 0.41-5.07 2.059 3.75 0.588 1.8 1.843 3.02 1.831 2.68 0.83-0.03 0.312-0.55 0.787-5.22 0.066-2.71-0.389-3.25" fill="none" stroke="#000" stroke-linecap="round" stroke-linejoin="round" stroke-width="4"/>
 </g>
 <g transform="translate(-58.77 -3797.8)">
  <path d="m164.45 4269.2-0.032 0.24-0.051-0.25-3.516 0.17-2.028 0.56-4.134 2.66-1.245 2.21-0.257 2.32 0.213 2.84 0.739 2.13 1.483 1.64 1.163 0.4 2.335-0.68 0.551 0.17 3.004-2.13 0.452-0.82-0.045-0.59-0.395-1.09-0.814-0.59-1.405-0.41-0.591 0.35-1.416-0.18-0.601 0.63-1.141 0.27" fill="none" stroke="#000" stroke-linecap="round" stroke-linejoin="round" stroke-width="4"/>
 </g>
 <g transform="translate(-58.77 -3797.8)">
  <path d="m106.18 4313 0.168 0.16 0.13-1.08-0.808-0.37-0.234-0.56-1.903-0.29-0.452-0.46-1.394-0.09-2.9277 0.6-2.3611 0.98-1.3158 1.2-1.5714 3.25-0.3593 2.56 0.579 3.01 1.24 1.82 1.6259 1.26 1.9328 0.61 1.3157 0.82 0.5129-0.3 1.13 0.42 1.453-0.2 1.711-1.16 1.553-1.55 0.311-1.31-0.655-0.54-0.666-0.06-0.606-0.68-0.422 0.4-0.824-0.75-1.244-0.44-0.302 0.21-1.059-0.26" fill="none" stroke="#000" stroke-linecap="round" stroke-linejoin="round" stroke-width="4"/>
 </g>
 <g transform="translate(-58.77 -3797.8)">
  <path d="m121.69 4314.1-0.271-0.52-0.286 0.38-0.148-0.25-0.802 0.38-0.368-0.25-1.492 0.32-2.278-0.23-2.556 0.26-0.313-0.23-1.269 0.86-0.231-0.37-1.826 3.14-0.9 3.93-0.138 3.09 0.392 1.61 1.31 1.99 1.432 1.05 2.047 0.17 2.941-2.24" fill="none" stroke="#000" stroke-linecap="round" stroke-linejoin="round" stroke-width="4"/>
 </g>
 <g transform="translate(-58.77 -3797.8)">
  <path d="m116.07 4321-0.399 0.47-1.166-0.75-0.578 0.33-0.818-0.54-0.998 0.06-1.265-0.62-0.442 0.17-1.234-0.72" fill="none" stroke="#000" stroke-linecap="round" stroke-linejoin="round" stroke-width="4"/>
 </g>
 <g transform="translate(-58.77 -3797.8)">
  <path d="m128.92 4315.8 0.262 0.09-0.673 3.08 0.162 3.54 0.351 1.26 0.751 0.49 1.059-2.17 0.907-3.2-0.347-3.61-0.108-0.31-0.229 0.35-0.142-0.4-0.146 0.73" fill="none" stroke="#000" stroke-linecap="round" stroke-linejoin="round" stroke-width="4"/>
 </g>
 <g transform="translate(-58.77 -3797.8)">
  <path d="m126.91 4322.2 0.791 1.04 0.575-0.13 3.163-10.76 1.967 3.44 4.087 4.77 1.644 0.61 1.663-0.72 2.512-3.29 0.471-2.06-0.794-3.5-1.308-2.73" fill="none" stroke="#000" stroke-linecap="round" stroke-linejoin="round" stroke-width="4"/>
 </g>
 <g transform="translate(-58.77 -3797.8)">
  <path d="m59.729 4257v84" fill="none" stroke="#000" stroke-linecap="round" stroke-linejoin="round" stroke-width="4"/>
 </g>
 <g transform="translate(-58.77 -3797.8)">
  <path d="m60.729 4340h133.17" fill="none" stroke="#000" stroke-linecap="round" stroke-linejoin="round" stroke-width="4"/>
 </g>
 <g transform="translate(-58.77 -3797.8)">
  <path d="m193 4341v-86" fill="none" stroke="#000" stroke-linecap="round" stroke-linejoin="round" stroke-width="4"/>
 </g>
 <g transform="translate(-58.77 -3797.8)">
  <path d="m-108.47 4165.1v-124" fill="none" stroke="#000" stroke-linecap="round" stroke-linejoin="round" stroke-width="4"/>
 </g>
 <g transform="translate(-58.77 -3797.8)">
  <path d="m15.533 4037.1h-125" fill="none" stroke="#000" stroke-linecap="round" stroke-linejoin="round" stroke-width="4"/>
 </g>
 <g transform="translate(-58.77 -3797.8)">
  <path d="m20.533 4162.1v-119" fill="none" stroke="#000" stroke-linecap="round" stroke-linejoin="round" stroke-width="4"/>
 </g>
 <g transform="translate(-58.77 -3797.8)">
  <path d="m25.23 4120.4 88-0.02" fill="none" stroke="#000" stroke-linecap="round" stroke-linejoin="round" stroke-width="4"/>
 </g>
 <g transform="translate(-58.77 -3797.8)">
  <path d="m112.63 4117.8-0.843-0.61-1.469-0.41-1.691-1.35-1.461-1.74-0.483-1.21-2.289-3.29" fill="none" stroke="#000" stroke-linecap="round" stroke-linejoin="round" stroke-width="4"/>
 </g>
 <g transform="translate(-58.77 -3797.8)">
  <path d="m110.49 4119.1 0.132 0.79-0.798 1.33-1.869 2.34-0.894 0.4-2e-3 0.34-1.175 1.05-3.369 1.87-2.282 0.71" fill="none" stroke="#000" stroke-linecap="round" stroke-linejoin="round" stroke-width="4"/>
 </g>
 <g transform="translate(-58.77 -3797.8)">
  <path d="m119.22 4052.7 0.015 97.22" fill="none" stroke="#000" stroke-linecap="round" stroke-linejoin="round" stroke-width="4"/>
 </g>
 <g transform="translate(-58.77 -3797.8)">
  <path d="m195.23 4116.2-7e-3 -42.7" fill="none" stroke="#000" stroke-linecap="round" stroke-linejoin="round" stroke-width="4"/>
 </g>
 <g transform="translate(-58.77 -3797.8)">
  <path d="m218.69 4022.6-0.117 0.96 0.306 0.24 1.415-0.78 2.184-0.39 13.599-0.55 2.583-0.34 0.227-0.18-1.1-0.11" fill="none" stroke="#000" stroke-linecap="round" stroke-linejoin="round" stroke-width="4"/>
 </g>
 <g transform="translate(-58.77 -3797.8)">
  <path d="m220.62 4020.9 0.762 0.3 0.437-0.24-1.113-1.09-0.109-1.94 1.561-3.88 1.105-1.04 1.166-0.53 1.602-0.09 1.983 1.03 1.378 1.94 0.603 2.54-0.167 1.15-0.226-0.21 1.208-0.99 0.012-0.45 6.95-5.53 1.442-1.97 0.689-0.44-0.234-0.11 0.415 0.18-0.603 0.17 0.17 0.27-0.383 0.66" fill="none" stroke="#000" stroke-linecap="round" stroke-linejoin="round" stroke-width="4"/>
 </g>
 <g transform="translate(-58.77 -3797.8)">
  <path d="m224.66 3992.9-0.08-0.49-0.413-0.18 0.29 0.08-0.253 0.69 0.513 0.14-0.367 0.11-0.616 1.06-0.197 1.59 0.152 1.5 0.602 1.42 1.57 1.68-0.056 0.46 1.221 0.97 2.363 1.17 3.333 0.84 1.635-0.01 1.625-0.45 1.385-1.22 0.674-1.55 0.16-1.4-0.506-2.91-0.891-2.33-1.097-0.86-0.817-0.13 0.274-0.03-0.067-0.27-2.074-0.45-0.624 1.44 0.083 1.14 0.563 0.77-0.389 0.38 1.03 1.14" fill="none" stroke="#000" stroke-linecap="round" stroke-linejoin="round" stroke-width="4"/>
 </g>
 <g transform="translate(-58.77 -3797.8)">
  <path d="m237.07 3983.9 0.444 0.27 0.874-0.11-0.485 0.16-8.534-0.23-4.739 0.32-0.656-0.11 0.212-0.12-0.177-0.3-0.58-0.16 0.435-0.42-0.19-0.1 0.339-0.64-0.388-0.34 0.511-0.46 1.081-4.15 1.064-0.35 1.009 0.1 2.196 1.16 1.387 1.27-0.284-0.12 0.064-0.41 0.703-1.33 1.24-1.34 0.985-0.36 1.298 0.45 0.333-0.22-0.022 0.3 0.603 0.23 0.665 0.98 0.792 2.23-0.057 0.78 0.42 0.43-0.618 1.8" fill="none" stroke="#000" stroke-linecap="round" stroke-linejoin="round" stroke-width="4"/>
 </g>
 <g transform="translate(-58.77 -3797.8)">
  <path d="m200.22 4086.3 47-0.01" fill="none" stroke="#000" stroke-linecap="round" stroke-linejoin="round" stroke-width="4"/>
 </g>
 <g transform="translate(-58.77 -3797.8)">
  <path d="m246.55 4084.9 0.209-0.31-0.854 0.16 0.202 0.08 0.124-0.61-2.115-1.33-2.928-2.47-2.969-3.79-1.024-0.75 0.375-0.14-0.226 0.12 0.213 0.41 1.291 0.54-1.918-0.37 0.151-0.16-0.567-0.22" fill="none" stroke="#000" stroke-linecap="round" stroke-linejoin="round" stroke-width="4"/>
 </g>
 <g transform="translate(-58.77 -3797.8)">
  <path d="m243.61 4085.4 0.266-0.5 0.559 0.3-1.336 1.24-0.95 0.31-1.034 0.68" fill="none" stroke="#000" stroke-linecap="round" stroke-linejoin="round" stroke-width="4"/>
 </g>
 <g transform="translate(-58.77 -3797.8)">
  <path d="m20.533 4165.1h-131" fill="none" stroke="#000" stroke-linecap="round" stroke-linejoin="round" stroke-width="4"/>
 </g>
 <g transform="translate(-58.77 -3797.8)">
  <path d="m-218.47 4072.1h105" fill="none" stroke="#000" stroke-linecap="round" stroke-linejoin="round" stroke-width="4"/>
 </g>
 <g transform="translate(-58.77 -3797.8)">
  <path d="m-120.02 4077.1-0.557 0.64-0.144-0.25v0.48l0.112-0.39-0.312 0.16 0.037-0.38-0.086 0.57 2.553-2.08 2.126-0.7 0.619-0.54 0.202 0.31 1.087-1.59 0.328 0.37 0.226-0.23-0.132 0.38-0.106-0.56 0.581-0.95 0.139 0.48 0.175-0.84 0.642-0.07-0.231-0.18-0.079 0.25-0.386-0.95-1.316-1.29-5.674-0.38-1.082-1.45-0.373-1.59-0.679-0.39" fill="none" stroke="#000" stroke-linecap="round" stroke-linejoin="round" stroke-width="4"/>
 </g>
 <g transform="translate(-58.77 -3797.8)">
  <path d="m-175.34 4051.1-0.229 0.61-3e-3 -0.33-0.262 0.1-0.521 0.81-1.7 3.94-1.274 4.73-0.202 1.5 0.459 0.02" fill="none" stroke="#000" stroke-linecap="round" stroke-linejoin="round" stroke-width="4"/>
 </g>
 <g transform="translate(-58.77 -3797.8)">
  <path d="m-174.08 4048.9 0.148 1.59 2.59 7.58 0.534 3.38" fill="none" stroke="#000" stroke-linecap="round" stroke-linejoin="round" stroke-width="4"/>
 </g>
 <g transform="translate(-58.77 -3797.8)">
  <path d="m-173.43 4056.5-0.364 0.47-2.05 0.99-2.395 0.66-0.678-0.4" fill="none" stroke="#000" stroke-linecap="round" stroke-linejoin="round" stroke-width="4"/>
 </g>
 <g transform="translate(-58.77 -3797.8)">
  <path d="m-163.01 4049.3 0.811 1.45-0.332 6.54 0.259 1.23 0.312 0.12" fill="none" stroke="#000" stroke-linecap="round" stroke-linejoin="round" stroke-width="4"/>
 </g>
 <g transform="translate(-58.77 -3797.8)">
  <path d="m-157.29 4046.7-3.77-0.11-0.636-0.54-3.361 0.48-0.517-0.22-1.303 1.04" fill="none" stroke="#000" stroke-linecap="round" stroke-linejoin="round" stroke-width="4"/>
 </g>
 <g transform="translate(-58.77 -3797.8)">
  <path d="m-218.47 4110.1h106" fill="none" stroke="#000" stroke-linecap="round" stroke-linejoin="round" stroke-width="4"/>
 </g>
 <g transform="translate(-58.77 -3797.8)">
  <path d="m-113.12 4107.4-0.369-0.15-0.443 0.46 0.2-0.5-0.166 0.15-0.747-1.76-1.542-0.96-3.287-3.02-0.121-0.48-0.994 0.78-0.054-0.31-0.022 0.33" fill="none" stroke="#000" stroke-linecap="round" stroke-linejoin="round" stroke-width="4"/>
 </g>
 <g transform="translate(-58.77 -3797.8)">
  <path d="m-113.48 4111.2-0.072 0.38-0.057-0.19-0.881 0.49-3.964 3.65-2.261 1.11" fill="none" stroke="#000" stroke-linecap="round" stroke-linejoin="round" stroke-width="4"/>
 </g>
 <g transform="translate(-58.77 -3797.8)">
  <path d="m-111.47 4150.1h-105" fill="none" stroke="#000" stroke-linecap="round" stroke-linejoin="round" stroke-width="4"/>
 </g>
 <g transform="translate(-58.77 -3797.8)">
  <path d="m-212.31 4143.6-0.018-1.87-0.12 1.07 0.085-0.6-0.032 0.53-0.734 0.29-1.356 1.72-0.671 0.27-0.785 1.12-0.427 0.05-0.896 1.19-0.35-0.12-1.011 1.31-0.46 0.01-0.011 0.27 0.404-0.35" fill="none" stroke="#000" stroke-linecap="round" stroke-linejoin="round" stroke-width="4"/>
 </g>
 <g transform="translate(-58.77 -3797.8)">
  <path d="m-212.4 4154.7-0.19 0.29 0.45 0.8 0.021-0.65-0.403-0.05-0.097 0.37-0.084-0.32-1.292-0.36-0.472 0.6-0.983-0.84-4.558-1.73-0.552-0.65" fill="none" stroke="#000" stroke-linecap="round" stroke-linejoin="round" stroke-width="4"/>
 </g>
 <g transform="translate(-58.77 -3797.8)">
  <path d="m-194.8 4127.4-0.929-0.09 0.332 0.62-0.547 11.19 0.264 0.64 0.199-0.48" fill="none" stroke="#000" stroke-linecap="round" stroke-linejoin="round" stroke-width="4"/>
 </g>
 <g transform="translate(-58.77 -3797.8)">
  <path d="m-192.04 4127.4-0.431-0.25 0.466-0.56 0.139 0.42 0.72-0.81 1.331-0.22 2.979 0.87 1.469 1.47-0.22 1.87-3.098 4-1.208 0.78-0.265-0.35-1.424 0.17 1.748 0.6 1.345 1.25 3.708 4.66" fill="none" stroke="#000" stroke-linecap="round" stroke-linejoin="round" stroke-width="4"/>
 </g>
 <g transform="translate(-58.77 -3797.8)">
  <path d="m-177.37 4128.2-0.524 0.27-0.496-0.3 0.301-0.13 0.178 0.58-3e-3 9.15" fill="none" stroke="#000" stroke-linecap="round" stroke-linejoin="round" stroke-width="4"/>
 </g>
 <g transform="translate(-58.77 -3797.8)">
  <path d="m-173.3 4125.8 1.327 0.45 1.151 1.03 1.316 3.09 1.066 5.21-0.606 1.24-1.738 1.81-1.317 0.57-0.757 0.86-2.722 1.18" fill="none" stroke="#000" stroke-linecap="round" stroke-linejoin="round" stroke-width="4"/>
 </g>
 <g transform="translate(-58.77 -3797.8)">
  <path d="m-161.7 4126.8-0.666 0.11-0.072 0.38 2.709 3.72 2.428 1.28 1.589-0.28 1.114-0.62 1.735-2.89 0.293-1.12-0.229-0.53" fill="none" stroke="#000" stroke-linecap="round" stroke-linejoin="round" stroke-width="4"/>
 </g>
 <g transform="translate(-58.77 -3797.8)">
  <path d="m-155.68 4133.3 0.307 3.08-0.089 4.15" fill="none" stroke="#000" stroke-linecap="round" stroke-linejoin="round" stroke-width="4"/>
 </g>
 <g transform="translate(-58.77 -3797.8)">
  <path d="m-196.6 4087.6 0.409-0.08 0.034 0.39 0.06-0.2-0.159 0.36-0.114-0.17 0.151 0.94 0.306 0.17 2.548 6.82 0.874 1.61 1.27 1.03 0.365-0.42 0.175 0.24 0.142-0.58 0.545-0.46 3.059-6.95 0.235-0.04 0.179 0.81" fill="none" stroke="#000" stroke-linecap="round" stroke-linejoin="round" stroke-width="4"/>
 </g>
 <g transform="translate(-58.77 -3797.8)">
  <path d="m-177.7 4088.6-1.092 6.62 0.779 2.1 0.89 0.45 2.621 0.22 3.428-0.95" fill="none" stroke="#000" stroke-linecap="round" stroke-linejoin="round" stroke-width="4"/>
 </g>
 <g transform="translate(-58.77 -3797.8)">
  <path d="m-162.36 4096.8-0.296 0.71 0.111-0.32-0.159 0.24-0.119-0.46-0.024 0.28 0.25-3.09-0.369-3.92 0.124-1.98 0.387-0.65 0.155 0.33 1.639-0.18 2.31 1.15 0.712 0.84 0.398-0.3 1.146 2.07 0.261 4.28-1.121 1.48h-0.486l-1.339 1.07-0.76-0.14-1.203 0.93-2.386 0.86-1.247-0.12" fill="none" stroke="#000" stroke-linecap="round" stroke-linejoin="round" stroke-width="4"/>
 </g>
 <g transform="translate(-58.77 -3797.8)">
  <path d="m-77.467 3988.1v44" fill="none" stroke="#000" stroke-linecap="round" stroke-linejoin="round" stroke-width="4"/>
 </g>
 <g transform="translate(-58.77 -3797.8)">
  <path d="m-77.246 4032.6-0.2113-0.11 0.2099 0.47-0.0352-0.59 0.9362-1.95 1.0198-0.91 3.1901-1.64 0.6166-0.72 0.564 0.02 0.8644-0.65-0.267 0.44" fill="none" stroke="#000" stroke-linecap="round" stroke-linejoin="round" stroke-width="4"/>
 </g>
 <g transform="translate(-58.77 -3797.8)">
  <path d="m-77.267 4032.4-0.6021 0.09-0.8165-0.45-0.0739-0.5-1.0002-0.71-0.2738-0.66-1.6984-1.77-2.7538-2.22-0.1448 0.3 0.0898-0.39" fill="none" stroke="#000" stroke-linecap="round" stroke-linejoin="round" stroke-width="4"/>
 </g>
 <g transform="translate(-58.77 -3797.8)">
  <path d="m-101.02 4028.4 0.145 0.27 0.038-0.59 0.026 0.4-5e-3 -0.29 0.26 0.25 1.0912-1.17 2.3615-1.09 0.3651-0.46 1.0424-0.26 0.4265-0.75 0.5507 0.11 1.3558-0.59 2.5988-2.47 0.4707 0.06 0.0077-0.31 0.2919 0.5-0.0799-0.78-0.1216 0.25-1.4892-0.33-0.3372-0.38-1.9524-0.61-0.295-0.4-1.6674-0.43-0.2404 0.23-0.1181-0.35-0.8229-0.21-0.4178-0.49-0.0805 0.39-0.2007-0.41-0.3283 0.14-0.3104-0.88 0.1649-0.27 0.2523 0.62" fill="none" stroke="#000" stroke-linecap="round" stroke-linejoin="round" stroke-width="4"/>
 </g>
 <g transform="translate(-58.77 -3797.8)">
  <path d="m-88.641 4007.9 0.1344-1.01-0.3835 0.83-0.646-0.37-2.1809 0.39-3.7813-0.03-1.1499 0.4-3.0984-0.51-0.0625-0.25-0.0923 0.19 0.7639-0.01" fill="none" stroke="#000" stroke-linecap="round" stroke-linejoin="round" stroke-width="4"/>
 </g>
 <g transform="translate(-58.77 -3797.8)">
  <path d="m-91.518 3998.4 0.5203-0.4 0.3861 0.26 0.1394-0.68-0.2184 0.68 0.2568-0.02-0.0315-0.31 0.1 0.22-0.0182-0.39 0.1218 0.39 0.0655-0.28 0.1094 0.28 0.4018-0.3 0.7944-1.23 0.3313-1.64-0.3921-2.92-0.1372-0.27-0.2345 0.24-0.1565-0.82-1.1339-1.49-0.5667-0.27-0.0041 0.27-0.9109-0.18-0.165 0.41-1.0005-0.42-0.2088 0.26-0.6337-0.12-1.6123 1.1-0.3451-0.15-0.159 0.64-0.2846-0.38-0.0983 0.45-0.12-0.25-0.3091 0.42-0.1872-0.12-0.486 0.97-0.1756 2.1 0.3167 1.54 0.1361-0.31 0.4397 0.75-0.0276 1.17-0.4824 0.06-0.2606 0.56-0.4455-0.02-0.7516 0.71-1.2858-0.19-0.773-0.75-0.392 0.1-0.062-0.46-0.28 0.31-0.438-0.26-0.335-1.12-0.053 0.45-0.594-0.23-0.445-1.52-0.079-2.15 0.396-2.92 0.227 0.89" fill="none" stroke="#000" stroke-linecap="round" stroke-linejoin="round" stroke-width="4"/>
 </g>
 <g transform="translate(-58.77 -3797.8)">
  <path d="m-91.808 3981.2 0.4374-0.62-0.3952 0.4-0.1209-0.57-0.875 0.25-0.4889-0.27-4.2595 1.18-1.4225-0.52-0.6222-0.7-1.4476-0.26-0.279-0.76 0.014 0.64" fill="none" stroke="#000" stroke-linecap="round" stroke-linejoin="round" stroke-width="4"/>
 </g>
 <g transform="translate(-58.77 -3797.8)">
  <path d="m-101.42 3971.8-0.418 0.5-0.451-0.43 0.236 0.4-0.258-0.61 0.079 0.54 0.129-0.81 0.581 0.25 0.996-0.3 0.262 0.32 2.8515-0.29 0.8974 0.59 0.7913 0.18 0.2835-0.24 2.3849 0.72 0.8298-0.35 0.0939-0.51 0.202 0.32 0.4164-0.2 0.9108 0.46-0.1463-0.55 0.4616 0.61-0.0872-0.55 0.2006 0.35-0.3256 0.16 0.2505-0.46-0.8643-5.2-0.3882-1.44-0.7087-0.65-0.9944-0.25-0.0099 0.23-0.4285-0.36-0.4772 0.24-0.6696-0.46-0.5121 0.56-1.0688 0.44-0.0426 0.43-0.6587-0.16-0.109 0.34-0.5162-0.03-0.6599 0.65-0.3693 2.34-0.5232 0.65 0.4663 0.24-0.1313 0.74-0.2054-0.49 0.2357-2.05-1.1046-1.44-0.2642-0.14-0.172 0.3-0.349-0.58-1.518-0.44-1.537 0.26-1.162 0.69-0.52 0.93 0.123 0.47-0.608 2.35 0.238 0.25-1e-3 -0.56 0.15 0.55" fill="none" stroke="#000" stroke-linecap="round" stroke-linejoin="round" stroke-width="4"/>
 </g>
 <g transform="translate(-58.77 -3797.8)">
  <path d="m-104.53 3955.6-0.2-0.24-0.058 0.53-0.427-0.44 0.038 0.3-0.083-0.56 0.304 0.3-0.016-0.27-0.026 0.29 0.13-0.38 0.831-0.27 3.536 0.72 5.0682-0.15 0.5901 0.28 0.9074-0.23 0.627 0.28 0.1144 0.38 0.7098-0.42 0.865 0.43 0.1514-0.43 0.702 0.55 0.0499-0.3 0.1375 0.46-0.5321-2.59 0.0838-6.05-0.292-0.33-0.3013 0.11 0.3655 0.67-0.0451 1.12" fill="none" stroke="#000" stroke-linecap="round" stroke-linejoin="round" stroke-width="4"/>
 </g>
 <g transform="translate(-58.77 -3797.8)">
  <path d="m-78.467 3987.1v-39" fill="none" stroke="#000" stroke-linecap="round" stroke-linejoin="round" stroke-width="4"/>
 </g>
 <g transform="translate(-58.77 -3797.8)">
  <path d="m20.235 4041-0.3037 0.69 0.354-3.38" fill="none" stroke="#000" stroke-linecap="round" stroke-linejoin="round" stroke-width="4"/>
 </g>
 <g transform="translate(-58.77 -3797.8)">
  <path d="m17.855 4037.6-0.1289-1.3-0.0485 1.23-0.0408-0.45 0.3726-0.21-0.0254 0.25 0.2083-0.42-0.0427 0.4 0.1026-0.18 0.1341 0.41 0.1741-0.53 0.1587 0.53" fill="none" stroke="#000" stroke-linecap="round" stroke-linejoin="round" stroke-width="4"/>
 </g>
 <g transform="translate(-58.77 -3797.8)">
  <path d="m-153.98 4061.9 2.682-6.68 4.264-8.14" fill="none" stroke="#000" stroke-linecap="round" stroke-linejoin="round" stroke-width="4"/>
 </g>
 <g transform="translate(-58.77 -3797.8)">
  <path d="m-140.44 4062-0.456-0.08-0.895-2.77-1.123-4.95-2.74-6.33-0.038 0.86" fill="none" stroke="#000" stroke-linecap="round" stroke-linejoin="round" stroke-width="4"/>
 </g>
 <g transform="translate(-58.77 -3797.8)">
  <path d="m-144.46 4055.9-2.185 0.04-1.657 0.81-0.513-0.18" fill="none" stroke="#000" stroke-linecap="round" stroke-linejoin="round" stroke-width="4"/>
 </g>
 <g transform="translate(-58.77 -3797.8)">
  <path d="m-194.16 4060.8-0.466-13.17" fill="none" stroke="#000" stroke-linecap="round" stroke-linejoin="round" stroke-width="4"/>
 </g>
 <g transform="translate(-58.77 -3797.8)">
  <path d="m-192.67 4047.3-0.225 0.26 1.121-0.09 1.703 1.26 2.468 3.24 0.964 2.4 0.237 2.54-0.542 2.37-0.888 1.15-4.865 2.25-0.963-0.02" fill="none" stroke="#000" stroke-linecap="round" stroke-linejoin="round" stroke-width="4"/>
 </g>
 <g transform="translate(-58.77 -3797.8)">
  <path d="m-174.45 4126-0.742 0.13-0.108-0.26-0.733 0.52-1.262 0.2-0.08 0.44" fill="none" stroke="#000" stroke-linecap="round" stroke-linejoin="round" stroke-width="4"/>
 </g>
 <g transform="translate(-58.77 -3797.8)">
  <path d="m-177.35 4139.6-0.254 0.61 0.278 1.69" fill="none" stroke="#000" stroke-linecap="round" stroke-linejoin="round" stroke-width="4"/>
 </g>
 <g transform="translate(-58.77 -3797.8)">
  <path d="m-222 4205v-166" fill="none" stroke="#000" stroke-linecap="round" stroke-linejoin="round" stroke-width="4"/>
 </g>
 <g transform="translate(-58.77 -3797.8)">
  <path d="m-225.11 4035.5 0.538-0.84 0.428 0.21-0.403-0.02 6e-3 -0.36-0.482 0.71-1.8 0.6-4.733 0.4-0.857 0.35-4.879-0.06-0.81-0.25-0.717 0.2-0.419-0.38-0.666 0.15-0.373-0.35-0.22 0.61-0.379-0.53-0.831-0.12-1.455 0.14-0.927 0.61-1.157-0.12-0.399 0.43-0.843-0.36-0.453 0.45-0.372-0.36-3.04-0.36-1.539-0.04-1.071 0.32-0.131 0.32-2.974-0.41-2.497 0.45-0.621-0.6 0.063 0.29-0.293-0.09 0.414-0.01" fill="none" stroke="#000" stroke-linecap="round" stroke-linejoin="round" stroke-width="4"/>
 </g>
 <g transform="translate(-58.77 -3797.8)">
  <path d="m-261 4207h36" fill="none" stroke="#000" stroke-linecap="round" stroke-linejoin="round" stroke-width="4"/>
 </g>
 <g transform="translate(-58.77 -3797.8)">
  <path d="m-329.17 4095.2 0.181-0.6-0.411 0.17-0.409 1.59-0.941 7.18-0.404 6.52 0.179 1.26 0.328 0.28 0.322-0.41 1.904-0.1 0.472-0.42 2.879 0.37 0.584-0.53 0.249 0.32 3.769 1.06 0.192 0.93" fill="none" stroke="#000" stroke-linecap="round" stroke-linejoin="round" stroke-width="4"/>
 </g>
 <g transform="translate(-58.77 -3797.8)">
  <path d="m-311.28 4110.6-0.226 0.36 0.174-0.78-0.816-3.74 0.461-2.56" fill="none" stroke="#000" stroke-linecap="round" stroke-linejoin="round" stroke-width="4"/>
 </g>
 <g transform="translate(-58.77 -3797.8)">
  <path d="m-309.95 4091.7 0.311-0.05-0.253-0.44-0.246 1.26-0.556 0.85" fill="none" stroke="#000" stroke-linecap="round" stroke-linejoin="round" stroke-width="4"/>
 </g>
 <g transform="translate(-58.77 -3797.8)">
  <path d="m-299.46 4109.9-0.741 0.29 0.206-0.56-0.168-7.86 0.402-1.66 0.387 0.03 1.175 1.07 0.605 1.06 0.8 0.58 3.748 5.57h0.889l1.066-1.45 0.719-2.63 0.316-5.96-0.166-4.06-0.237-0.34 0.246 1.97" fill="none" stroke="#000" stroke-linecap="round" stroke-linejoin="round" stroke-width="4"/>
 </g>
 <g transform="translate(-58.77 -3797.8)">
  <path d="m-267.69 4093.2 0.211-0.5 0.05 0.46-0.709 0.26-6.836 0.01-2.054 0.81-0.419 0.69-0.863 0.54-0.707 1.18-0.93 4.16 0.394 3.82 1.436 2.34 1.177 0.99 1.135 0.69 3.086 0.3 1.272-0.64 0.611 0.13 1.009-0.61 0.341 0.29 0.292-0.28-0.24 0.41" fill="none" stroke="#000" stroke-linecap="round" stroke-linejoin="round" stroke-width="4"/>
 </g>
 <g transform="translate(-58.77 -3797.8)">
  <path d="m-274.01 4100.5-0.176-0.34-0.012 0.25-4.394-0.15-0.793-0.35-3.672 1.25" fill="none" stroke="#000" stroke-linecap="round" stroke-linejoin="round" stroke-width="4"/>
 </g>
 <g transform="translate(-58.77 -3797.8)">
  <path d="m-343.57 4136.1-0.63-0.26 0.013-0.42-0.71 8.23 0.035 6.39 0.599 5.91" fill="none" stroke="#000" stroke-linecap="round" stroke-linejoin="round" stroke-width="4"/>
 </g>
 <g transform="translate(-58.77 -3797.8)">
  <path d="m-341.41 4136.5-0.665-0.09-0.101-0.49 0.166 0.15 0.177-0.29 1.826-0.49 1.678 0.06 3.911 1.1 0.823 0.61 0.06 2.96-1.117 2.26-1.279 1.28-2.004 0.98-1.846 0.46 2.049 0.72 1.842 2.24 0.731 0.64 0.498-0.11 0.913 1.17 0.594 1.96-0.484 1.71-1.482 0.99-0.691-0.06-1.542 0.64-0.798-0.38-0.372 0.34-2.537 0.4-2.111-0.5" fill="none" stroke="#000" stroke-linecap="round" stroke-linejoin="round" stroke-width="4"/>
 </g>
 <g transform="translate(-58.77 -3797.8)">
  <path d="m-323.91 4138.5 0.609 0.31-0.891 4.11 0.438 4.07 0.79 2.41 0.631 0.98 1.1 0.96 0.815 0.29 2.794-0.42 1.563-0.63 1.327-1.49 1.095-2.03 0.281-2.72-0.249-2.36-1.09-3.32-0.181 0.1" fill="none" stroke="#000" stroke-linecap="round" stroke-linejoin="round" stroke-width="4"/>
 </g>
 <g transform="translate(-58.77 -3797.8)">
  <path d="m-304.69 4152.4-0.286 0.88 0.349 0.87 0.308 0.13 0.102-0.26 0.096-3.16-0.387-3.37-0.207-7.65-0.723-2.99 0.173 0.94 0.323-0.61 0.288 0.31 0.175-0.22 4.508-0.06 2.584-0.46 1.554-0.63 0.639 0.13 0.744-0.52 0.1 0.46 0.128-0.21-0.258 0.55-0.28-0.06-0.476 0.63" fill="none" stroke="#000" stroke-linecap="round" stroke-linejoin="round" stroke-width="4"/>
 </g>
 <g transform="translate(-58.77 -3797.8)">
  <path d="m-298.32 4142.8-0.33 1.41-1.695 1.45-0.237-0.16-2.24 0.58-3.089-0.02" fill="none" stroke="#000" stroke-linecap="round" stroke-linejoin="round" stroke-width="4"/>
 </g>
 <g transform="translate(-58.77 -3797.8)">
  <path d="m-286.14 4150.7-1.218-8.96-0.81-1.61-0.204 0.22-0.103-0.9-0.338-0.17-0.203-1.04-0.098 0.24 0.231-2.89 2.543-1.35 1.379 0.07 3.129-0.56 2.837 0.24-0.072 1.13" fill="none" stroke="#000" stroke-linecap="round" stroke-linejoin="round" stroke-width="4"/>
 </g>
 <g transform="translate(-58.77 -3797.8)">
  <path d="m-282.39 4144 0.22 0.58 0.247-0.19-0.171 0.48-0.271-0.31-2.424 0.37-1.86-0.04-0.157-0.29-0.319 0.36-0.193-0.18" fill="none" stroke="#000" stroke-linecap="round" stroke-linejoin="round" stroke-width="4"/>
 </g>
 <g transform="translate(-58.77 -3797.8)">
  <path d="m-262.8 4135 0.616-0.58-0.105-0.28-1.02 0.47-2.187-0.01-1.08 0.56-2.451-0.5-1.501 0.28-0.331 0.47-1.028 9.07 0.167 5.72 0.181 1.1 0.406 0.5 1.719 0.64 0.2 0.42 1.557 0.02 0.306 0.45 0.735-0.37 0.426 0.23 3.252-0.62 2.044-0.85" fill="none" stroke="#000" stroke-linecap="round" stroke-linejoin="round" stroke-width="4"/>
 </g>
 <g transform="translate(-58.77 -3797.8)">
  <path d="m-263.95 4141.8-0.684-0.14-0.189-0.33-0.364 0.29-0.764-0.17-1.358 0.46-0.567-0.73-3.584 2.22" fill="none" stroke="#000" stroke-linecap="round" stroke-linejoin="round" stroke-width="4"/>
 </g>
 <g transform="translate(-58.77 -3797.8)">
  <path d="m-251.41 4135.4 0.207 0.42-0.343 0.81-0.94 11.21 0.68 3.7 0.307-0.4" fill="none" stroke="#000" stroke-linecap="round" stroke-linejoin="round" stroke-width="4"/>
 </g>
 <g transform="translate(-58.77 -3797.8)">
  <path d="m-250.69 4136.8 2.129-0.37-1.224-0.76 1e-3 -0.55 0.309-0.01 0.188-0.59 0.262 0.3 0.121-0.3 0.593 0.19 1.619-0.35 0.46 0.3 0.401-0.22 1.772 1.04 0.342-0.1 1.264 1.98 0.197 2.7-0.299 0.99-1.743 1.19-0.395-0.21-0.691 0.73-2.207 1.07-1.226 1.09 0.414-0.48 0.218 0.12 1.831 1.43 0.778 0.17 0.235 1.04 0.199-0.26 0.499 0.15 1.448 1.27 0.92 1.77 3.821 5.45-0.264 0.11-0.244-0.55-0.896-0.33" fill="none" stroke="#000" stroke-linecap="round" stroke-linejoin="round" stroke-width="4"/>
 </g>
 <g transform="translate(-58.77 -3797.8)">
  <path d="m-620 3879h275" fill="none" stroke="#909090" stroke-linecap="round" stroke-linejoin="round" stroke-width="4"/>
 </g>
 <g transform="translate(-58.77 -3797.8)">
  <path d="m-345 3819h-276" fill="none" stroke="#909090" stroke-linecap="round" stroke-linejoin="round" stroke-width="4"/>
 </g>
 <g transform="translate(-58.77 -3797.8)">
  <path d="m-620 3822v56" fill="none" stroke="#909090" stroke-linecap="round" stroke-linejoin="round" stroke-width="4"/>
 </g>
 <g transform="translate(-58.77 -3797.8)">
  <path d="m-341 3822v55" fill="none" stroke="#909090" stroke-linecap="round" stroke-linejoin="round" stroke-width="4"/>
 </g>
 <g transform="translate(-58.77 -3797.8)">
  <path d="m-71.512 4076.5 0.3155-0.35-0.12-0.52-0.0897 0.44-0.1326-0.29-0.3366 0.35-0.286-0.24-0.9024 0.3-0.3668-0.29-1.221 0.31-3.471 1.16-1.7647 1.05-0.7525 0.81-0.7647 2 0.0504 1.59 1.0686 0.66 2.1355 0.51 2.0017 0.9 1.4556 1.18 1.6236 3.13 0.168 1.61-0.2923 0.49-1.8801 0.88-5.7944 1.87-1.3712 0.15" fill="none" stroke="#000" stroke-linecap="round" stroke-linejoin="round" stroke-width="4"/>
 </g>
 <g transform="translate(-58.77 -3797.8)">
  <path d="m-56.129 4081.3-0.7694-0.12-0.0572 0.44 0.0489-1.22-0.8878-0.36-2.9266 1.22-2.9657 2.08-1.3478 1.09-0.3166 0.74 0.1608 2.75 1.4036 2.92 2.3855 1.25 2.146 0.25 1.341-0.21 1.833-1.02 1.4123-1.24" fill="none" stroke="#000" stroke-linecap="round" stroke-linejoin="round" stroke-width="4"/>
 </g>
 <g transform="translate(-58.77 -3797.8)">
  <path d="m-39.24 4077.7 0.2278 0.72-0.302 1.16-0.5847 0.6-0.3224 1.09-0.9105 0.76-0.6346 1.34-0.8713 0.93-1.4952 3.12-1.2763 4.25-0.0567 0.87 0.2532 0.32 0.1086-0.19" fill="none" stroke="#000" stroke-linecap="round" stroke-linejoin="round" stroke-width="4"/>
 </g>
 <g transform="translate(-58.77 -3797.8)">
  <path d="m-38.21 4077.4 0.0715-0.38 0.3326 0.46 3.525 8.58 1.5485 5.78" fill="none" stroke="#000" stroke-linecap="round" stroke-linejoin="round" stroke-width="4"/>
 </g>
 <g transform="translate(-58.77 -3797.8)">
  <path d="m-35.324 4085.8-0.195-0.22-0.4968 0.35-1.1954-0.4-0.8387 0.27-4.0573-0.42-1.1979 0.62" fill="none" stroke="#000" stroke-linecap="round" stroke-linejoin="round" stroke-width="4"/>
 </g>
 <g transform="translate(-58.77 -3797.8)">
  <path d="m-22.042 4089-0.3053 0.6-0.1158-2.76 0.1532-3.45 0.4927-2.8 0.0241 0.32 0.0349-0.28 1.1788 1.01 3.562 3.54 2.7705 4.58 1.3238 1.54 0.6165 0.55 0.9571 0.02 0.3541-0.45 0.5872-4.07-0.2408-4.32-1.2788-6.61-0.667-1.28-0.3612 0.41" fill="none" stroke="#000" stroke-linecap="round" stroke-linejoin="round" stroke-width="4"/>
 </g>
 <g transform="translate(-58.77 -3797.8)">
  <path d="m-69.721 4125.9 0.4861 1.99 0.6246 0.29 2.1489-0.01 0.4789 0.4 5.4427-1.06 2.9216-1.41 2.3077-2.88 0.6652-1.63 0.0355-3.33-1.5087-4.44-2.0425-2.38-0.9293-0.34-0.7526 0.24-1.2148-0.13-0.8485 0.19-1.0447 0.87-1.8765 0.55-0.8793 1.12-1.7332 1.08-1.4882 1.72-1.0481 2.39-0.3659 1.72 0.1245 1.22 0.8107 1.84" fill="none" stroke="#000" stroke-linecap="round" stroke-linejoin="round" stroke-width="4"/>
 </g>
 <g transform="translate(-58.77 -3797.8)">
  <path d="m-46.74 4111.3-0.11 2.87-0.799 1.34-0.2884 1.37 0.1235 2.34 0.6138 2.31 1.4096 3.04 0.534 0.22 0.2707 0.56 2.6105 1.76 0.5324-0.52 0.2146 0.52 0.6698 0.41 1.7669 0.01 1.265-0.81 1.7909-2.17 1.0537-2.34 0.4162-1.83-0.1082-2.12-1.0244-4.02-0.2422 0.02" fill="none" stroke="#000" stroke-linecap="round" stroke-linejoin="round" stroke-width="4"/>
 </g>
 <g transform="translate(-58.77 -3797.8)">
  <path d="m-19.503 4111.7 0.7879 1.06 0.1188 0.93-0.8802 7.46 0.655 5.44" fill="none" stroke="#000" stroke-linecap="round" stroke-linejoin="round" stroke-width="4"/>
 </g>
 <g transform="translate(-58.77 -3797.8)">
  <path d="m-13.926 4110.9-0.0361-0.34-0.5566-0.32-2.3601 0.1-0.7821-0.27-11.366 2.5-3.2788-0.04" fill="none" stroke="#000" stroke-linecap="round" stroke-linejoin="round" stroke-width="4"/>
 </g>
 <g transform="translate(-58.77 -3797.8)">
  <path d="m123 4033 72 39" fill="none" stroke="#000" stroke-linecap="round" stroke-linejoin="round" stroke-width="4"/>
 </g>
 <g transform="translate(-58.77 -3797.8)">
  <path d="m121 4051v-18" fill="none" stroke="#000" stroke-linecap="round" stroke-linejoin="round" stroke-width="4"/>
 </g>
 <g transform="translate(-58.77 -3797.8)">
  <path d="m195 4114v7.33" fill="none" stroke="#000" stroke-linecap="round" stroke-linejoin="round" stroke-width="4"/>
 </g>
 <g transform="translate(-58.77 -3797.8)">
  <path d="m67.7 4082.3 48-0.01" fill="none" stroke="#000" stroke-linecap="round" stroke-linejoin="round" stroke-width="4"/>
 </g>
 <g transform="translate(-58.77 -3797.8)">
  <path d="m114.7 4079.2-8.001-6" fill="none" stroke="#000" stroke-linecap="round" stroke-linejoin="round" stroke-width="4"/>
 </g>
 <g transform="translate(-58.77 -3797.8)">
  <path d="m113.7 4083.2-6.999 6" fill="none" stroke="#000" stroke-linecap="round" stroke-linejoin="round" stroke-width="4"/>
 </g>
 <g transform="translate(-58.77 -3797.8)">
  <path d="m58.414 3967.4 0.0181 116" fill="none" stroke="#000" stroke-linecap="round" stroke-linejoin="round" stroke-width="4"/>
 </g>
 <g transform="translate(-58.77 -3797.8)">
  <path d="m69.423 4082.7 0.3713 1.41 0.1142-0.34-0.2989-0.16-2.5175-0.01-1.7911-0.56-3.5797-0.47h-2.7241" fill="none" stroke="#000" stroke-linecap="round" stroke-linejoin="round" stroke-width="4"/>
 </g>
 <g transform="translate(-58.77 -3797.8)">
  <path d="m58.415 3968.4-0.0035-22" fill="none" stroke="#000" stroke-linecap="round" stroke-linejoin="round" stroke-width="4"/>
 </g>
 <g transform="translate(-58.77 -3797.8)">
  <path d="m72.768 3986.1-0.275-0.35-0.4545 0.06 0.3355 0.3 6.3735 0.03 4.6036 0.69 7.2242 0.51 1.1572-0.15-2.0196-0.69" fill="none" stroke="#000" stroke-linecap="round" stroke-linejoin="round" stroke-width="4"/>
 </g>
 <g transform="translate(-58.77 -3797.8)">
  <path d="m70.894 3983.4-0.0981 0.53 0.4053 0.22-0.7339-0.2 0.3911-0.07-0.1973-0.13 0.4082-0.37 0.2556-1.08 0.1325-5.7 0.326-0.9-0.3106-0.32 0.747-0.58-0.2183-0.18 2.7476 0.14 3.9681 2.33 2.225 2.29 0.6638 1.72-0.1215 0.44-0.3794-0.22 0.4038 0.05-0.1939-0.13 0.6264-0.52 1.0797-2.13 1.5925-2.03 1.2787-0.99 2.0922-0.48 2.2119-0.05 0.9717 0.16 0.6339 0.57 1.5011 7.47-0.1365 1.28-1.2323 0.49" fill="none" stroke="#000" stroke-linecap="round" stroke-linejoin="round" stroke-width="4"/>
 </g>
 <g transform="translate(-58.77 -3797.8)">
  <path d="m76.513 3951.1-1.1474 0.21-0.2172 0.47-0.6328 0.18 0.212 0.19-0.166 0.7-0.3891 0.14-0.0336 0.65-0.454 0.27-0.4686 1-0.0999 1.72 0.4788 1.72 0.4845 0.42-0.2354 0.17 0.6735 0.69-0.1889 0.26 1.0142 0.73 0.9119 1.38 0.6912 1.86 3.3811 1.57-0.3379 0.01 0.3838 0.31 1.2636-0.42 1.0831 0.17 2.5419-0.31 2.7274-1.23-0.0469-0.21 0.7168-0.01-0.2496-0.2 1.1337-0.61-0.2012-0.04 0.2626-0.71 1.9382-1.53 0.2728-1.33-0.2687-0.99 0.1392-2.98-1.4076-1.93-4.0585-2.89-2.6202-0.36 0.4312 0.19-0.4263 0.07 0.0322 3.01-0.2489 0.29 0.2227 0.6-0.1283 0.58-0.3696 0.18 0.6785 1.63" fill="none" stroke="#000" stroke-linecap="round" stroke-linejoin="round" stroke-width="4"/>
 </g>
 <g transform="translate(-58.77 -3797.8)">
  <path d="m136.37 4003.7 0.6 0.23-0.25 0.18 2.96 0.4 6.379 0.38 5.365-0.48-0.33-0.42" fill="none" stroke="#000" stroke-linecap="round" stroke-linejoin="round" stroke-width="4"/>
 </g>
 <g transform="translate(-58.77 -3797.8)">
  <path d="m138.42 4002.1 0.025-0.57 0.572-0.69-0.424-0.19-0.661-1.27 7e-3 -0.97 0.168-0.81 0.547-0.27-0.076-0.5 0.411-0.2-0.123-0.25 0.636-0.1 0.632-0.55 1.63 0.48 2.058 1.51-0.228 0.71 0.021-0.28 1.82-1.13 2.039-2.32 0.838 0.02 0.964 0.63-0.062 0.25 0.871 0.69-0.222 0.39 0.729 0.48 0.727 1.34 0.123 0.31-0.478 0.31 0.286 0.28-0.015 1.14-0.661 1.05" fill="none" stroke="#000" stroke-linecap="round" stroke-linejoin="round" stroke-width="4"/>
 </g>
 <g transform="translate(-58.77 -3797.8)">
  <path d="m148.33 3983.9-0.098-0.62 0.649-0.15-0.644-0.06 0.678-0.02-0.418 0.03-0.269 0.78 0.366 0.26 0.536 4.68 0.407 0.71" fill="none" stroke="#000" stroke-linecap="round" stroke-linejoin="round" stroke-width="4"/>
 </g>
 <g transform="translate(-58.77 -3797.8)">
  <path d="m132.08 3966.6 0.253 0.45-0.13 0.7-0.361-0.08 0.154 0.36 0.417 0.1-0.162 0.37 0.505 0.15 0.086 1.1 1.329 3.09 0.649 0.16-0.232 0.27 0.989 0.62-0.124 0.25 3.574 0.95 3.234 0.19 4.285-0.5 0.987-1.13 0.118-0.28-0.547-0.34 0.355-0.75-0.09-1.69-0.402-0.51 0.365-1.17-0.287-1.72-0.341-0.35 0.125-0.77" fill="none" stroke="#000" stroke-linecap="round" stroke-linejoin="round" stroke-width="4"/>
 </g>
 <g transform="translate(-58.77 -3797.8)">
  <path d="m140.04 3968.2-0.453 0.1 0.603 0.78 0.683 2.44-0.233 0.74 0.429 0.24-0.351 0.76" fill="none" stroke="#000" stroke-linecap="round" stroke-linejoin="round" stroke-width="4"/>
 </g>
 <g transform="translate(-58.77 -3797.8)">
  <path d="m144.22 3959.2 0.64-0.16-1.135-0.74-6.069-1.53 1.245-2.36 3.857-3.86-0.185-0.64-0.77-0.69-2.742-1.09-3.92-0.25-3.728 0.52-3.166 0.97" fill="none" stroke="#000" stroke-linecap="round" stroke-linejoin="round" stroke-width="4"/>
 </g>
 <g transform="translate(-58.77 -3797.8)">
  <path d="m163 4047v-104" fill="none" stroke="#000" stroke-linecap="round" stroke-linejoin="round" stroke-width="4"/>
 </g>
 <g transform="translate(-58.77 -3797.8)">
  <path d="m165.63 4046 0.59-1.94 1.741-3.22 2.155-2.6 0.306-0.28-0.185 0.49" fill="none" stroke="#000" stroke-linecap="round" stroke-linejoin="round" stroke-width="4"/>
 </g>
 <g transform="translate(-58.77 -3797.8)">
  <path d="m161.69 4045.6 0.152-0.53-0.217 0.25-0.707-1.2-2.163-4.9-0.742-0.69-0.513-0.03-0.181-0.42-0.333 0.07-0.067-0.47-0.509-0.07-0.271-0.67 0.252 0.32" fill="none" stroke="#000" stroke-linecap="round" stroke-linejoin="round" stroke-width="4"/>
 </g>
 <g transform="translate(-58.77 -3797.8)">
  <path d="m119 4150v20" fill="none" stroke="#000" stroke-linecap="round" stroke-linejoin="round" stroke-width="4"/>
 </g>
 <g transform="translate(-58.77 -3797.8)">
  <path d="m121 4171 73-41" fill="none" stroke="#000" stroke-linecap="round" stroke-linejoin="round" stroke-width="4"/>
 </g>
 <g transform="translate(-58.77 -3797.8)">
  <path d="m195 4130v-7" fill="none" stroke="#000" stroke-linecap="round" stroke-linejoin="round" stroke-width="4"/>
 </g>
 <g transform="translate(-58.77 -3797.8)">
  <path d="m151.07 4019.8-0.186 0.24-7.276-0.37-6.315-1.39-0.942 0.25-0.706-4.89 0.279-2.75 0.514 0.55" fill="none" stroke="#000" stroke-linecap="round" stroke-linejoin="round" stroke-width="4"/>
 </g>
 <g transform="translate(-58.77 -3797.8)">
  <path d="m143.37 4013.5 0.173 4.91" fill="none" stroke="#000" stroke-linecap="round" stroke-linejoin="round" stroke-width="4"/>
 </g>
 <g transform="translate(-58.77 -3797.8)">
  <path d="m135 4284 1-5" fill="none" stroke="#000" stroke-linecap="round" stroke-linejoin="round" stroke-width="4"/>
 </g>
 <g transform="translate(-58.77 -3797.8)">
  <path d="m238 4095 10-10" fill="none" stroke="#000" stroke-linecap="round" stroke-linejoin="round" stroke-width="4"/>
 </g>
</svg>
